<svg id="Layer_1" data-name="Layer 1" xmlns="http://www.w3.org/2000/svg" viewBox="0 0 10.63 21.26"><defs><style>.cls-1{fill:#ff5722;}</style></defs><path class="cls-1" d="M13.29,11V7.65l2.13-2.14a2.43,2.43,0,0,0,.38-2.92,2.38,2.38,0,0,0-2.07-1.22,2.11,2.11,0,0,0-.62.09,2.39,2.39,0,0,0-1.75,2.32V6.92L8.33,10a5.73,5.73,0,0,0-1.21,6.21,5.63,5.63,0,0,0,4.24,3.44v.59a.49.49,0,0,1-.48.48H9.43v1.93h1.45a2.42,2.42,0,0,0,2.41-2.41v-.49a4.38,4.38,0,0,0,4-4.59,4.14,4.14,0,0,0-4-4.11m0-7.25a.44.44,0,0,1,.31-.45.48.48,0,0,1,.55.22.5.5,0,0,1-.08.59L13.29,5V3.78m-1.93,7.74a4.75,4.75,0,0,0-1.89,2.66l1.89.51v2.94a3.72,3.72,0,0,1-2.48-2.18,3.81,3.81,0,0,1,.8-4.1l1.68-1.77v1.94m1.93,6.28V12.91a2.23,2.23,0,0,1,2.11,2.23A2.49,2.49,0,0,1,13.29,17.8Z" transform="translate(-6.68 -1.37)"/></svg>