<svg id="Layer_1" data-name="Layer 1" xmlns="http://www.w3.org/2000/svg" viewBox="0 0 23.62 19.47"><defs><style>.cls-1{fill:#f44336;}</style></defs><path class="cls-1" d="M4.67,2.27a3.1,3.1,0,0,0-2.51.93,5,5,0,0,0-.77,3.19V8.86C1.39,10.27,1,11,.19,11v2c.8,0,1.2.68,1.2,2V17.7a4.83,4.83,0,0,0,.78,3.15,3.18,3.18,0,0,0,2.5.88V19.67a1.09,1.09,0,0,1-1-.46,3,3,0,0,1-.29-1.54V15.41c0-1.81-.4-2.94-1.21-3.4v0C3,11.5,3.41,10.39,3.41,8.62V6.26c0-1.28.42-1.93,1.26-1.93V2.27Zm14.66,0V4.34c.85,0,1.27.64,1.27,1.92V8.53c0,1.84.4,3,1.2,3.46v0c-.8.45-1.2,1.55-1.2,3.31V17.7a2.8,2.8,0,0,1-.3,1.51,1.08,1.08,0,0,1-1,.46v2.06a3.14,3.14,0,0,0,2.5-.88,5,5,0,0,0,.77-3.22V15.08c0-1.38.4-2.07,1.21-2.07V11c-.81,0-1.21-.69-1.21-2.09V6.35a5,5,0,0,0-.77-3.15,3.08,3.08,0,0,0-2.5-.93Zm-3,4.46A4.47,4.47,0,0,0,15,6.9a3,3,0,0,0-1.08.53,2.55,2.55,0,0,0-.73.92,3,3,0,0,0-.27,1.34,2.86,2.86,0,0,0,.49,1.69,3.85,3.85,0,0,0,1.5,1.19c.27.12.51.25.74.37a3.42,3.42,0,0,1,.58.37,1.62,1.62,0,0,1,.4.43,1,1,0,0,1,.14.52.87.87,0,0,1-.36.72,1.31,1.31,0,0,1-.46.21,2.35,2.35,0,0,1-.63.08A3.3,3.3,0,0,1,14.08,15,3.5,3.5,0,0,1,13,14.25v2.23a3.65,3.65,0,0,0,1.1.41,5.8,5.8,0,0,0,1.34.14,5.53,5.53,0,0,0,1.31-.15,3,3,0,0,0,1.09-.5,2.47,2.47,0,0,0,.73-.92,3.12,3.12,0,0,0,.28-1.4A3.07,3.07,0,0,0,18.64,13a2.38,2.38,0,0,0-.45-.81,3,3,0,0,0-.7-.63,7.2,7.2,0,0,0-.92-.54c-.26-.12-.48-.24-.68-.35a3.76,3.76,0,0,1-.51-.34,1.54,1.54,0,0,1-.32-.38.87.87,0,0,1-.12-.45.89.89,0,0,1,.1-.41,1,1,0,0,1,.29-.32,1.29,1.29,0,0,1,.46-.2,2.23,2.23,0,0,1,.6-.08,3,3,0,0,1,.5,0,3.53,3.53,0,0,1,.54.13,3.38,3.38,0,0,1,.52.22,3.15,3.15,0,0,1,.47.3V7.11a4,4,0,0,0-1-.29,6.83,6.83,0,0,0-1.18-.09Zm-8.77.16-3.13,10h2.1l.6-2.22h3.05l.61,2.22h2.11l-3-10ZM8.58,8.67h.05a4.26,4.26,0,0,0,.14.9l.92,3.35H7.49l.94-3.38a4.4,4.4,0,0,0,.15-.87Z" transform="translate(-0.19 -2.27)"/></svg>