<svg id="Layer_1" data-name="Layer 1" xmlns="http://www.w3.org/2000/svg" viewBox="0 0 23.02 23.97"><defs><style>.cls-1{fill:#f44336;}</style></defs><path class="cls-1" d="M13.42,0A1,1,0,0,0,13,.11a1.22,1.22,0,0,0-.55.45c-.05.08-.09.16-.13.24L7.82,11.58H3.52a1.19,1.19,0,1,0,0,2.37H12a1.19,1.19,0,0,0,0-2.37H10.38l3-7.3L21.23,23.2a1.19,1.19,0,1,0,2.19-.91L14.51.75A1.18,1.18,0,0,0,13.42,0Zm-11.75,16a1.19,1.19,0,0,0,0,2.37H5L3.37,22.35a1.18,1.18,0,1,0,2.18.9l2-4.83h2.56a1.19,1.19,0,1,0,0-2.37Z" transform="translate(-0.49 -0.02)"/></svg>