<svg id="Layer_1" data-name="Layer 1" xmlns="http://www.w3.org/2000/svg" viewBox="0 0 23.65 24"><defs><style>.cls-1{fill:#ff6e40;}</style></defs><path class="cls-1" d="M.18,0V24H4.06V21.6H2.12V2.4H4.06V0ZM19.94,0V2.4h1.95V21.6H19.94V24h3.88V0Z" transform="translate(-0.18 0)"/><path class="cls-1" d="M15.63,2.83a3.92,3.92,0,0,0-1.48.25,2.41,2.41,0,0,0-1,.77,3.49,3.49,0,0,0-.57,1.28,7.63,7.63,0,0,0-.18,1.76,8.4,8.4,0,0,0,.17,1.76,3.53,3.53,0,0,0,.56,1.27,2.46,2.46,0,0,0,1,.78,3.9,3.9,0,0,0,1.49.26,3.67,3.67,0,0,0,1.5-.26,2.39,2.39,0,0,0,1-.77,3.31,3.31,0,0,0,.56-1.27,7.9,7.9,0,0,0,.18-1.77,7.51,7.51,0,0,0-.18-1.74,3.35,3.35,0,0,0-.55-1.27,2.5,2.5,0,0,0-1-.79,3.93,3.93,0,0,0-1.51-.26ZM7.81,3a1.07,1.07,0,0,1-.16.53.94.94,0,0,1-.41.34A1.94,1.94,0,0,1,6.67,4c-.23,0-.48,0-.73,0V5.3H7.59V9.43H5.94V10.8h5.22V9.43H9.55V3Zm7.82,1.31a1,1,0,0,1,.93.6,5.39,5.39,0,0,1,.27,2,5.22,5.22,0,0,1-.28,2,1,1,0,0,1-1.84,0,5.16,5.16,0,0,1-.28-2,5.18,5.18,0,0,1,.28-2,.94.94,0,0,1,.92-.6ZM8.37,13a3.66,3.66,0,0,0-1.48.26,2.36,2.36,0,0,0-1,.77,3.37,3.37,0,0,0-.57,1.27,7.66,7.66,0,0,0-.18,1.77,7.72,7.72,0,0,0,.18,1.75,3.26,3.26,0,0,0,.56,1.28,2.33,2.33,0,0,0,1,.77,3.73,3.73,0,0,0,1.5.26,3.92,3.92,0,0,0,1.5-.25,2.54,2.54,0,0,0,1-.77,3.42,3.42,0,0,0,.55-1.28,7.9,7.9,0,0,0,.18-1.77,8.14,8.14,0,0,0-.17-1.74,3.6,3.6,0,0,0-.56-1.27,2.33,2.33,0,0,0-1-.78A3.66,3.66,0,0,0,8.37,13Zm6.71.14a1.14,1.14,0,0,1-.16.52,1,1,0,0,1-.41.34,2,2,0,0,1-.58.16,5.58,5.58,0,0,1-.72,0v1.28h1.65v4.13H13.21V21h5.22V19.65H16.81V13.18Zm-6.71,1.3a.94.94,0,0,1,.92.61,5.09,5.09,0,0,1,.28,2,5.19,5.19,0,0,1-.28,2,1,1,0,0,1-1.84,0,5.16,5.16,0,0,1-.28-2,5.36,5.36,0,0,1,.27-2,1,1,0,0,1,.93-.61Z" transform="translate(-0.18 0)"/></svg>