<svg id="_x31__x2C_5" enable-background="new 0 0 24 24" height="512" viewBox="0 0 24 24" width="512" xmlns="http://www.w3.org/2000/svg"><path d="m12.917 1.614 2.012-.914c1.168-.531 2.54.038 2.991 1.239l.776 2.07c.225.599.697 1.071 1.296 1.296l2.07.776c1.201.45 1.769 1.823 1.239 2.991l-.914 2.012c-.265.582-.265 1.251 0 1.833l.914 2.012c.531 1.168-.038 2.54-1.239 2.991l-2.07.776c-.599.225-1.071.697-1.296 1.296l-.776 2.07c-.45 1.201-1.823 1.769-2.991 1.239l-2.012-.914c-.582-.265-1.251-.265-1.833 0l-2.012.914c-1.168.531-2.54-.038-2.991-1.239l-.776-2.07c-.225-.599-.697-1.071-1.296-1.296l-2.07-.776c-1.201-.45-1.769-1.823-1.239-2.991l.914-2.012c.265-.582.265-1.251 0-1.833l-.915-2.013c-.53-1.168.038-2.54 1.239-2.991l2.07-.776c.599-.225 1.071-.697 1.296-1.296l.776-2.07c.45-1.201 1.823-1.769 2.991-1.239l2.012.914c.583.265 1.251.265 1.834.001z" fill="#2196f3"/><path d="m23.25 13.25v1.563h-13.5v-1.563c0-.83.67-1.5 1.5-1.5h10.5c.83 0 1.5.67 1.5 1.5z" fill="#607d8b"/><path d="m23.25 14.813v6.938c0 .83-.67 1.5-1.5 1.5h-10.5c-.83 0-1.5-.67-1.5-1.5v-6.938z" fill="#eceff1"/><path d="m21.75 24h-10.5c-1.241 0-2.25-1.009-2.25-2.25v-8.5c0-1.241 1.009-2.25 2.25-2.25h10.5c1.241 0 2.25 1.009 2.25 2.25v8.5c0 1.241-1.009 2.25-2.25 2.25zm-10.5-11.5c-.414 0-.75.336-.75.75v8.5c0 .414.336.75.75.75h10.5c.414 0 .75-.336.75-.75v-8.5c0-.414-.336-.75-.75-.75z"/><path d="m23.25 15.485h-13.5c-.414 0-.75-.336-.75-.75s.336-.75.75-.75h13.5c.414 0 .75.336.75.75s-.336.75-.75.75z"/><path d="m6.56 23.2c-.209 0-.399-.086-.535-.225-.03-.03-.058-.062-.083-.097-.133-.185-.302-.438-.43-.766l-.763-2.029c-.144-.386-.446-.688-.83-.832l-2.022-.76c-.761-.284-1.354-.854-1.669-1.604-.311-.742-.301-1.589.028-2.324l.902-1.976c.171-.374.171-.803 0-1.177l-.9-1.97c-.332-.74-.342-1.587-.031-2.33.314-.75.908-1.32 1.671-1.604l2.018-.759c.386-.144.688-.446.832-.83l.76-2.022c.284-.761.854-1.354 1.604-1.669.741-.312 1.589-.301 2.324.028l1.976.902c.374.171.803.171 1.177 0l1.97-.9c.74-.33 1.587-.34 2.33-.031.75.314 1.32.908 1.604 1.671l.759 2.018c.144.386.446.688.83.832l2.022.76c1.365.512 2.146 1.967 1.816 3.383-.094.403-.494.652-.901.56-.403-.094-.654-.498-.56-.901.16-.685-.22-1.389-.883-1.638l-2.021-.76c-.79-.295-1.413-.918-1.708-1.71l-.759-2.018c-.139-.373-.416-.661-.779-.814-.367-.153-.769-.148-1.132.014l-1.965.897c-.77.352-1.653.352-2.423 0l-1.97-.9c-.36-.157-.76-.162-1.128-.009-.363.153-.64.441-.778.812l-.76 2.022c-.295.79-.918 1.413-1.71 1.708l-2.019.76c-.373.139-.661.416-.814.779-.153.367-.148.769.015 1.133l.897 1.965c.352.77.352 1.653 0 2.423l-.9 1.97c-.16.358-.165.76-.012 1.127.153.364.441.641.812.779l2.022.76c.79.295 1.413.918 1.708 1.71l.759 2.018c.046.119.115.241.226.397.107.131.172.298.172.478.001.413-.335.749-.749.749z"/></svg>