<svg id="Layer_1" data-name="Layer 1" xmlns="http://www.w3.org/2000/svg" viewBox="0 0 24.7 24.7"><defs><style>.cls-1{fill:#0d3858;stroke:#4dd0e1;stroke-width:0.7px;}.cls-2{fill:#4dd0e1;}</style></defs><rect class="cls-1" x="0.35" y="0.35" width="24" height="24"/><path class="cls-2" d="M12.69,17a5.33,5.33,0,0,1-2.53.53A4.08,4.08,0,0,1,7,16.29,4.62,4.62,0,0,1,5.85,13,4.86,4.86,0,0,1,7.18,9.43a4.49,4.49,0,0,1,3.35-1.35,5.4,5.4,0,0,1,2.16.37V9.6a4.32,4.32,0,0,0-2.17-.55A3.34,3.34,0,0,0,8,10.1a4,4,0,0,0-1,2.82,3.82,3.82,0,0,0,.91,2.68,3.15,3.15,0,0,0,2.41,1A4.5,4.5,0,0,0,12.69,16Z" transform="translate(0.35 0.35)"/><path class="cls-2" d="M18.15,7.63a1.55,1.55,0,0,0-.78-.19c-.82,0-1.23.51-1.23,1.54v1.13h1.71v1H16.14v6.3H15V11.1H13.74v-1H15V8.93a2.41,2.41,0,0,1,.67-1.81,2.21,2.21,0,0,1,1.65-.67,2.47,2.47,0,0,1,.85.12Z" transform="translate(0.35 0.35)"/></svg>