<svg id="Layer_1" data-name="Layer 1" xmlns="http://www.w3.org/2000/svg" viewBox="0 0 23.84 16.69"><defs><style>.cls-1{fill:#0277bd;}</style></defs><path class="cls-1" d="M11.4,16.73l.49,2.91a5.78,5.78,0,0,1-1.48.46A10.42,10.42,0,0,1,8,20.34,7.69,7.69,0,0,1,2.08,18a8.43,8.43,0,0,1-2-5.76A8.73,8.73,0,0,1,2.46,5.91,8.24,8.24,0,0,1,8.35,3.66a11.07,11.07,0,0,1,2.32.22,5.58,5.58,0,0,1,1.43.48l-.7,3-1.26-.41a6.8,6.8,0,0,0-1.66-.18A4.64,4.64,0,0,0,5.06,8.05a5.47,5.47,0,0,0-1.4,4,5.46,5.46,0,0,0,1.28,3.81,4.71,4.71,0,0,0,3.57,1.41l1.58-.15a5.68,5.68,0,0,0,1.31-.38m2.85,3.61L15,15.58H13.19l.41-2.39h1.79l.38-2.38H14l.4-2.39h1.79l.73-4.76h2.38l-.72,4.76h1.19l.72-4.76h2.39l-.73,4.76h1.79l-.41,2.39H21.73l-.39,2.38h1.79l-.4,2.39H20.94l-.73,4.76H17.83l.73-4.76h-1.2l-.72,4.76H14.25m3.52-7.15H19l.38-2.38H18.15Z" transform="translate(-0.08 -3.66)"/></svg>