<svg id="Layer_1" data-name="Layer 1" xmlns="http://www.w3.org/2000/svg" viewBox="0 0 297.92 234.71"><defs><style>.cls-1{fill:#f44336;}</style></defs><ellipse class="cls-1" cx="210.81" cy="72.38" rx="50.27" ry="49.28"/><ellipse class="cls-1" cx="279.91" cy="18.07" rx="18.01" ry="18.07"/><path class="cls-1" d="M7.52,38.82A8,8,0,0,0,1,46.88l.23,210.7c0,3.19.73,9.78,8.35,9.78L78.11,267c19.58,0,32.69-.43,40.5-1.6h.19a122.84,122.84,0,0,0,24-6.76,113.77,113.77,0,0,0,39.64-24.54,111.46,111.46,0,0,0,25.91-37,109.93,109.93,0,0,0,9.13-44.25,112.77,112.77,0,0,0-16.56-59.51,107.57,107.57,0,0,0-44.62-41c-18.84-9.41-43.41-13.7-73.89-13.63l-74,.12a7,7,0,0,0-.92,0ZM47.33,82.17l31.88,0c14.9,0,25.5.5,31.51,1.47a78.88,78.88,0,0,1,19.84,6.29,68.09,68.09,0,0,1,18.36,11.79c14.44,13.23,21.25,28.88,21.28,49.61,0,21.22-6.54,37.75-20.61,51.61a68.3,68.3,0,0,1-14.45,10.73c-5,2.75-11.56,5.12-19.82,7.17-7.8,1.83-19.63,2.88-35,2.91l-32.81.06Z" transform="translate(-1.04 -32.64)"/></svg>