<svg id="Layer_1" data-name="Layer 1" xmlns="http://www.w3.org/2000/svg" viewBox="0 0 23.98 24"><defs><style>.cls-1{fill:#66c3fa;}.cls-2{fill:#215896;}.cls-3{fill:#235997;}.cls-4{fill:#58b6f0;}</style></defs><path class="cls-1" d="M12.71,0a1.11,1.11,0,0,0-.78.32h0L4.57,4.58l7.33,7.33h0l8.8,8.81,1.68-3L16.33,3.16,13.5.33A1.11,1.11,0,0,0,12.71,0Z" transform="translate(-0.01)"/><path class="cls-2" d="M4.59,4.56.34,11.9h0A1.16,1.16,0,0,0,0,12.7a1.11,1.11,0,0,0,.33.79L3.86,17l13.76,5.41,3.11-1.73-.09-.08h0L12,12h0L4.59,4.56Z" transform="translate(-0.01)"/><path class="cls-3" d="M4.57,4.56l7.49,7.51h0l8.63,8.64L24,20.08V10.36L20.52,7a5.6,5.6,0,0,0-3.1-1.38v0l-12.86-1Z" transform="translate(-0.01)"/><path class="cls-4" d="M4.58,4.57l7.5,7.5h0l8.63,8.64L20.08,24H10.36L7,20.53a5.5,5.5,0,0,1-1.38-3.1h0l-1-12.86Z" transform="translate(-0.01)"/></svg>