<svg id="Layer_1" data-name="Layer 1" xmlns="http://www.w3.org/2000/svg" viewBox="0 0 21.33 24"><defs><style>.cls-1{fill:#ffca28;}</style></defs><path class="cls-1" d="M12,0C6.11,0,1.33,2.39,1.33,5.33S6.11,10.67,12,10.67,22.67,8.28,22.67,5.33,17.89,0,12,0M1.33,8v4C1.33,15,6.11,17.33,12,17.33S22.67,15,22.67,12V8c0,2.95-4.78,5.33-10.67,5.33S1.33,11,1.33,8m0,6.67v4C1.33,21.61,6.11,24,12,24s10.67-2.39,10.67-5.33v-4C22.67,17.61,17.89,20,12,20S1.33,17.61,1.33,14.67Z" transform="translate(-1.33)"/></svg>