<svg id="Layer_1" data-name="Layer 1" xmlns="http://www.w3.org/2000/svg" viewBox="0 0 24 24"><defs><style>.cls-1{fill:#42a5f5;}</style></defs><path class="cls-1" d="M2.29,0A2.28,2.28,0,0,0,0,2.29V14.86a2.27,2.27,0,0,0,2.29,2.28H4.57V14.86H2.29V2.29H14.86V4.57h2.28V2.29A2.27,2.27,0,0,0,14.86,0H2.29M9.14,6.86A2.27,2.27,0,0,0,6.86,9.14v2.29H9.14V9.14h2.29V6.86H9.14m4.57,0V9.14h1.15v1.15h2.28V6.86H13.71m5.72,0V9.14h2.28V21.71H9.14V19.43H6.86v2.28A2.27,2.27,0,0,0,9.14,24H21.71A2.28,2.28,0,0,0,24,21.71V9.14a2.27,2.27,0,0,0-2.29-2.28H19.43m-4.57,5.71v2.29H12.57v2.28h2.29a2.27,2.27,0,0,0,2.28-2.28V12.57H14.86m-8,1.14v3.43h3.43V14.86H9.14V13.71Z"/></svg>