<svg id="Layer_1" data-name="Layer 1" xmlns="http://www.w3.org/2000/svg" viewBox="0 0 231.43 298.17"><defs><style>.cls-1{fill:#43a047;}</style></defs><path class="cls-1" d="M139.39.91h48.76V226.59c-25,4.75-43.37,6.65-63.32,6.65-59.52,0-90.54-26.91-90.54-78.52,0-49.7,32.92-82,83.89-82a77.85,77.85,0,0,1,21.21,2.53Zm0,113.6A48.31,48.31,0,0,0,122.93,112C98.24,112,84,127.18,84,153.77c0,26,13.62,40.21,38.63,40.21a113.41,113.41,0,0,0,16.77-1.27Z" transform="translate(-34.29 -0.91)"/><path class="cls-1" d="M265.71,76.21v113c0,38.94-2.85,57.62-11.39,73.76-7.92,15.52-18.37,25.33-39.89,36.1l-45.28-21.53c21.53-10.13,32-19,38.63-32.61,7-13.93,9.18-30.08,9.18-72.5V76.21ZM217,1.18h48.75v50H217Z" transform="translate(-34.29 -0.91)"/></svg>