<svg id="Layer_1" data-name="Layer 1" xmlns="http://www.w3.org/2000/svg" xmlns:xlink="http://www.w3.org/1999/xlink" viewBox="0 0 1331.87 158.18"><defs><style>.cls-1{fill:none;}.cls-2{fill:#0087c9;}.cls-3{clip-path:url(#clip-path);}</style><clipPath id="clip-path" transform="translate(51.54 22.13)"><path class="cls-1" d="M8.53,24.89A2.18,2.18,0,0,1,6.34,22.8a2.12,2.12,0,0,1,2.19-2.09,2.12,2.12,0,0,1,2.2,2.09A2.19,2.19,0,0,1,8.53,24.89Zm27-11.39a6.28,6.28,0,0,0-2.61-4.08L32.35,9l-.41.52a5.58,5.58,0,0,0-1.05,3.86A5.74,5.74,0,0,0,31.83,16c-.42.21-.94.41-1.36.62a8.62,8.62,0,0,1-2.82.42H.59l-.1.63a11.69,11.69,0,0,0,.94,5.95l.42.73v.11c2.5,4.18,7,6.06,11.91,6.06,9.4,0,17.13-4.08,20.79-12.85,2.4.1,4.8-.52,6-2.82l.32-.53L40.29,14A6.37,6.37,0,0,0,35.49,13.5ZM22,11.83H17.94V15.9H22Zm0-5.12H17.94v4.07H22Zm0-5.23H17.94V5.56H22Zm5,10.35H23V15.9H27Zm-15.15,0H7.8V15.9h4.08Zm5.12,0H12.92V15.9H17Zm-10.14,0H2.79V15.9H6.86ZM17,6.71H12.92v4.07H17Zm-5.12,0H7.8v4.07h4.08Z"/></clipPath></defs><path id="SVGID" class="cls-2" d="M8.53,24.89A2.18,2.18,0,0,1,6.34,22.8a2.12,2.12,0,0,1,2.19-2.09,2.12,2.12,0,0,1,2.2,2.09A2.19,2.19,0,0,1,8.53,24.89Zm27-11.39a6.28,6.28,0,0,0-2.61-4.08L32.35,9l-.41.52a5.58,5.58,0,0,0-1.05,3.86A5.74,5.74,0,0,0,31.83,16c-.42.21-.94.41-1.36.62a8.62,8.62,0,0,1-2.82.42H.59l-.1.63a11.69,11.69,0,0,0,.94,5.95l.42.73v.11c2.5,4.18,7,6.06,11.91,6.06,9.4,0,17.13-4.08,20.79-12.85,2.4.1,4.8-.52,6-2.82l.32-.53L40.29,14A6.37,6.37,0,0,0,35.49,13.5ZM22,11.83H17.94V15.9H22Zm0-5.12H17.94v4.07H22Zm0-5.23H17.94V5.56H22Zm5,10.35H23V15.9H27Zm-15.15,0H7.8V15.9h4.08Zm5.12,0H12.92V15.9H17Zm-10.14,0H2.79V15.9H6.86ZM17,6.71H12.92v4.07H17Zm-5.12,0H7.8v4.07h4.08Z" transform="translate(51.54 22.13)"/><g class="cls-3"><rect id="SVGID-2" data-name="SVGID" class="cls-2" width="1331.87" height="158.18"/></g></svg>