<svg id="Layer_1" data-name="Layer 1" xmlns="http://www.w3.org/2000/svg" viewBox="0 0 29.97 23.69"><defs><style>.cls-1{fill:#f44336;}</style></defs><path class="cls-1" d="M4.13,3.16,4,3.33q-4,4.43-4,12c0,4.9,1.29,8.72,3.84,11.47H25.41A12.42,12.42,0,0,0,30,23l-3.5-2.8-1.61,1.53a10,10,0,0,1-2.57,2,12.28,12.28,0,0,1-5.14,1.07,9.45,9.45,0,0,1-6.36-2.28c-1.42-1.28-2.2-5-2.32-7.42l19.38.07-.21-1.63s-.94-7.91-2.82-10.4Zm9.72.94a5.88,5.88,0,0,1,4.4,1.63c.82,1,1,1.85,1.08,3.91H8.46C8.59,7.47,9,6.52,10,5.54A5.21,5.21,0,0,1,13.85,4.1Z" transform="translate(-0.01 -3.16)"/></svg>