<svg id="Filled" xmlns="http://www.w3.org/2000/svg" viewBox="0 0 408.8 511"><defs><style>.cls-1{fill:#e9eef2;}.cls-2{fill:#c3c6c7;}</style></defs><path class="cls-1" d="M417.82,503H94.18a34.06,34.06,0,0,1-34.06-34.06V43.08A34.06,34.06,0,0,1,94.18,9h255.5l102.2,102.2v357.7A34.06,34.06,0,0,1,417.82,503Z" transform="translate(-51.6 -0.5)"/><circle class="cls-2" cx="204.4" cy="366.22" r="17.03"/><path class="cls-2" d="M451.88,111.22H383.75a34.08,34.08,0,0,1-34.07-34.07V9Z" transform="translate(-51.6 -0.5)"/><path d="M256,341.17a25.55,25.55,0,1,0,25.55,25.55A25.55,25.55,0,0,0,256,341.17Zm0,34.06a8.52,8.52,0,1,1,8.52-8.51A8.52,8.52,0,0,1,256,375.23Z" transform="translate(-51.6 -0.5)"/><path d="M460.4,111.22a8.56,8.56,0,0,0-2.49-6L355.71,3a8.56,8.56,0,0,0-6-2.49H94.18A42.64,42.64,0,0,0,51.6,43.08V468.92A42.64,42.64,0,0,0,94.18,511.5H417.82a42.64,42.64,0,0,0,42.58-42.58ZM358.2,29.58l73.12,73.12H383.75A25.59,25.59,0,0,1,358.2,77.15Zm85.17,439.34a25.59,25.59,0,0,1-25.55,25.55H94.18a25.59,25.59,0,0,1-25.55-25.55V43.08A25.59,25.59,0,0,1,94.18,17.53h247V77.15a42.61,42.61,0,0,0,42.58,42.58h59.62Z" transform="translate(-51.6 -0.5)"/><path d="M256,153.8a68.2,68.2,0,0,0-68.13,68.13,8.52,8.52,0,1,0,17,0A51.1,51.1,0,1,1,256,273a8.53,8.53,0,0,0-8.52,8.52v34.07a8.52,8.52,0,0,0,17,0V289.53A68.13,68.13,0,0,0,256,153.8Z" transform="translate(-51.6 -0.5)"/></svg>