<svg id="svg" xmlns="http://www.w3.org/2000/svg" viewBox="0 0 12.55 16"><defs><style>.cls-1{fill:#ff7043;}</style></defs><path class="cls-1" d="M14.27,4h-.84a5.8,5.8,0,0,0-1-1.9A2.45,2.45,0,0,0,11,1c-.23,0-.51,0-.83-.07L9.09.89H6.4V7.32H8.24a4,4,0,0,0,1.3-.17,2.06,2.06,0,0,0,.79-.54,2.27,2.27,0,0,0,.4-.77A4.54,4.54,0,0,0,11,4.71h.86V11H11a4.85,4.85,0,0,0-.23-1.12A3,3,0,0,0,10.33,9a1.66,1.66,0,0,0-.86-.56,4,4,0,0,0-1.23-.16H6.4v5.51a1.47,1.47,0,0,0,.15.67,1.05,1.05,0,0,0,.52.47,3.63,3.63,0,0,0,.73.2,7.09,7.09,0,0,0,.86.12V16H1.73v-.8l.9-.07A3.1,3.1,0,0,0,3.36,15a.89.89,0,0,0,.48-.43,1.42,1.42,0,0,0,.16-.7V2.32a1.64,1.64,0,0,0-.12-.65.94.94,0,0,0-.52-.47A3.45,3.45,0,0,0,2.54.94,6.27,6.27,0,0,0,1.73.8V0H14.27Z" transform="translate(-1.73)"/></svg>