<svg id="Layer_1" data-name="Layer 1" xmlns="http://www.w3.org/2000/svg" viewBox="0 0 253.87 231.95"><defs><style>.cls-1{fill:#ef5350;}</style></defs><path class="cls-1" d="M3.08,12a2,2,0,0,0-2,2.07v67a2,2,0,0,0,2,2.07H92.87a2,2,0,0,0,2-2.07v-67a2,2,0,0,0-2-2.07Zm160,0a2,2,0,0,0-2,2.07v67a2,2,0,0,0,2,2.07h89.79a2,2,0,0,0,2-2.07v-67a2,2,0,0,0-2-2.07ZM3.08,130.45a2,2,0,0,0-2,2.06v67a2,2,0,0,0,2,2.07H92.87a2,2,0,0,0,2-2.07v-67a2,2,0,0,0-2-2.06Zm160,0a2,2,0,0,0-2,2.06v67a2,2,0,0,0,2,2.07h21.5v23.08H163.24a2,2,0,0,0-2,2V242a2,2,0,0,0,2,2h44a2,2,0,0,0,2-2V220.05h20.14a2,2,0,0,0,2-2V201.59h21.51a2,2,0,0,0,2-2.07v-67a2,2,0,0,0-2-2.06Z" transform="translate(-1.07 -12.02)"/></svg>