<svg id="Layer_1" data-name="Layer 1" xmlns="http://www.w3.org/2000/svg" viewBox="0 0 508.18 452"><defs><style>.cls-1{fill:#cecece;}.cls-2{fill:#afafaf;}.cls-3{fill:#e2e2e2;}.cls-4{fill:#f8af23;}.cls-5{fill:#f87023;}.cls-6{fill:#f8d323;}.cls-7{fill:#f46275;}.cls-8{fill:#63bce7;}.cls-9{fill:#3f3679;}.cls-10{fill:#6377e7;}.cls-11{fill:#63e2e7;}</style></defs><rect class="cls-1" x="143.26" y="3.17" width="221.67" height="212.38" rx="12.52"/><path class="cls-2" d="M166.31,233V45.69a12.55,12.55,0,0,1,12.52-12.52H157.68a12.55,12.55,0,0,0-12.51,12.52V233a12.55,12.55,0,0,0,12.51,12.52h21.15A12.55,12.55,0,0,1,166.31,233Z" transform="translate(-1.91 -30)"/><path class="cls-3" d="M345.69,233V45.69a12.55,12.55,0,0,0-12.52-12.52h21.15a12.55,12.55,0,0,1,12.51,12.52V233a12.55,12.55,0,0,1-12.51,12.52H333.17A12.55,12.55,0,0,0,345.69,233Z" transform="translate(-1.91 -30)"/><path class="cls-4" d="M366.83,45.7a12.56,12.56,0,0,0-12.52-12.53H157.68A12.56,12.56,0,0,0,145.16,45.7V74.5H366.83Z" transform="translate(-1.91 -30)"/><path class="cls-5" d="M178.83,33.17H157.69A12.57,12.57,0,0,0,145.16,45.7V74.5H166.3V45.7A12.57,12.57,0,0,1,178.83,33.17Z" transform="translate(-1.91 -30)"/><path class="cls-6" d="M333.17,33.17h21.14A12.57,12.57,0,0,1,366.84,45.7V74.5H345.7V45.7A12.57,12.57,0,0,0,333.17,33.17Z" transform="translate(-1.91 -30)"/><circle class="cls-7" cx="169.27" cy="23.84" r="8.64"/><circle class="cls-7" cx="195.76" cy="23.84" r="8.64"/><circle class="cls-7" cx="222.25" cy="23.84" r="8.64"/><rect class="cls-8" x="182.21" y="324.05" width="143.77" height="101.58" rx="10.57"/><path class="cls-9" d="M272.69,115.64a9.93,9.93,0,0,0-12.8,5.8h0L233.5,191.61a9.94,9.94,0,0,0,18.61,7h0l26.38-70.17a9.93,9.93,0,0,0-5.79-12.8Z" transform="translate(-1.91 -30)"/><path class="cls-9" d="M220.69,133.16a9.94,9.94,0,0,0-14.05,0h0L186.8,153a9.93,9.93,0,0,0,0,14h0l19.83,19.83a9.94,9.94,0,0,0,14.06-14.06h0L207.89,160l12.8-12.8a9.93,9.93,0,0,0,0-14.05Z" transform="translate(-1.91 -30)"/><path class="cls-9" d="M325.19,153l-19.83-19.84a9.94,9.94,0,0,0-14.06,14.06L304.1,160l-12.79,12.8a9.94,9.94,0,0,0,14.06,14.06l19.83-19.82a10,10,0,0,0,0-14.06Z" transform="translate(-1.91 -30)"/><rect class="cls-8" x="18.89" y="324.05" width="143.77" height="101.58" rx="10.57"/><path class="cls-10" d="M41.94,445.06V364.62a10.57,10.57,0,0,1,10.57-10.57H31.37A10.57,10.57,0,0,0,20.8,364.62v80.44a10.57,10.57,0,0,0,10.57,10.57H52.51A10.57,10.57,0,0,1,41.94,445.06Z" transform="translate(-1.91 -30)"/><rect class="cls-8" x="345.52" y="324.05" width="143.77" height="101.58" rx="10.57"/><path class="cls-11" d="M470.06,445.06V364.62a10.57,10.57,0,0,0-10.57-10.57h21.14a10.57,10.57,0,0,1,10.57,10.57v80.44a10.57,10.57,0,0,1-10.57,10.57H459.49A10.57,10.57,0,0,0,470.06,445.06Z" transform="translate(-1.91 -30)"/><path class="cls-9" d="M171.18,65.65a11.82,11.82,0,1,0-11.8-11.83v0A11.82,11.82,0,0,0,171.18,65.65Zm0-17.29a5.48,5.48,0,1,1-5.46,5.49h0A5.48,5.48,0,0,1,171.18,48.36Z" transform="translate(-1.91 -30)"/><path class="cls-9" d="M197.67,65.65a11.82,11.82,0,1,0-11.81-11.82h0A11.83,11.83,0,0,0,197.67,65.65Zm0-17.29a5.48,5.48,0,1,1-5.47,5.48h0A5.49,5.49,0,0,1,197.67,48.36Z" transform="translate(-1.91 -30)"/><path class="cls-9" d="M224.16,65.65a11.82,11.82,0,1,0-11.82-11.82h0A11.83,11.83,0,0,0,224.16,65.65Zm0-17.29a5.48,5.48,0,1,1-5.47,5.48h0A5.49,5.49,0,0,1,224.16,48.36Z" transform="translate(-1.91 -30)"/><path class="cls-9" d="M299.06,57h39.47a3.18,3.18,0,0,0,0-6.35H299.06a3.18,3.18,0,0,0,0,6.35Z" transform="translate(-1.91 -30)"/><path class="cls-9" d="M208.41,394.88a3.16,3.16,0,0,0,4.48,0l11.28-11.28a3.18,3.18,0,0,0,0-4.48l-11.28-11.28a3.17,3.17,0,0,0-4.56,4.41l.08.08,9,9-9,9a3.16,3.16,0,0,0,0,4.48Z" transform="translate(-1.91 -30)"/><path class="cls-9" d="M301.35,389.46H227.09a3.18,3.18,0,0,0,0,6.35h74.26a3.18,3.18,0,0,0,0-6.35Z" transform="translate(-1.91 -30)"/><path class="cls-9" d="M210.65,410h50.27a3.17,3.17,0,0,0,0-6.34H210.65a3.17,3.17,0,0,0,0,6.34Z" transform="translate(-1.91 -30)"/><path class="cls-9" d="M210.65,424.12h26.74a3.17,3.17,0,1,0,0-6.34H210.65a3.17,3.17,0,1,0,0,6.34Z" transform="translate(-1.91 -30)"/><path class="cls-9" d="M301.35,431.93h-90.7a3.17,3.17,0,0,0,0,6.34h90.7a3.17,3.17,0,0,0,0-6.34Z" transform="translate(-1.91 -30)"/><path class="cls-9" d="M301.35,403.62H283.12a3.17,3.17,0,1,0,0,6.34h18.23a3.17,3.17,0,0,0,0-6.34Z" transform="translate(-1.91 -30)"/><path class="cls-9" d="M301.35,417.78H254.59a3.17,3.17,0,1,0,0,6.34h46.76a3.17,3.17,0,0,0,0-6.34Z" transform="translate(-1.91 -30)"/><path class="cls-9" d="M45.09,394.88a3.17,3.17,0,0,0,4.49,0L60.85,383.6a3.16,3.16,0,0,0,0-4.48L49.58,367.84A3.17,3.17,0,0,0,45,372.25l.07.08,9,9-9,9a3.18,3.18,0,0,0,0,4.48Z" transform="translate(-1.91 -30)"/><path class="cls-9" d="M138,389.46H63.78a3.18,3.18,0,1,0,0,6.35H138a3.18,3.18,0,0,0,0-6.35Z" transform="translate(-1.91 -30)"/><path class="cls-9" d="M47.33,410H97.6a3.17,3.17,0,1,0,0-6.34H47.33a3.17,3.17,0,0,0,0,6.34Z" transform="translate(-1.91 -30)"/><path class="cls-9" d="M47.33,424.12H74.08a3.17,3.17,0,0,0,0-6.34H47.33a3.17,3.17,0,1,0,0,6.34Z" transform="translate(-1.91 -30)"/><path class="cls-9" d="M138,431.93H47.34a3.17,3.17,0,0,0,0,6.34H138a3.17,3.17,0,1,0,0-6.34Z" transform="translate(-1.91 -30)"/><path class="cls-9" d="M138,403.62H119.8a3.17,3.17,0,0,0,0,6.34H138a3.17,3.17,0,1,0,0-6.34Z" transform="translate(-1.91 -30)"/><path class="cls-9" d="M138,417.78H91.27a3.17,3.17,0,1,0,0,6.34H138a3.17,3.17,0,1,0,0-6.34Z" transform="translate(-1.91 -30)"/><path class="cls-9" d="M371.72,394.88a3.16,3.16,0,0,0,4.48,0l11.28-11.28a3.16,3.16,0,0,0,0-4.48L376.2,367.84a3.17,3.17,0,1,0-4.56,4.41l.08.08,9,9-9,9a3.17,3.17,0,0,0,0,4.49Z" transform="translate(-1.91 -30)"/><path class="cls-9" d="M387.23,392.63a3.17,3.17,0,0,0,3.17,3.18h74.26a3.18,3.18,0,0,0,0-6.35H390.4A3.17,3.17,0,0,0,387.23,392.63Z" transform="translate(-1.91 -30)"/><path class="cls-9" d="M374,410h50.27a3.17,3.17,0,0,0,0-6.34H374a3.17,3.17,0,0,0,0,6.34Z" transform="translate(-1.91 -30)"/><path class="cls-9" d="M374,424.12h26.75a3.17,3.17,0,0,0,0-6.34H374a3.17,3.17,0,1,0,0,6.34Z" transform="translate(-1.91 -30)"/><path class="cls-9" d="M374,438.27h90.7a3.17,3.17,0,0,0,0-6.34H374a3.17,3.17,0,0,0,0,6.34Z" transform="translate(-1.91 -30)"/><path class="cls-9" d="M464.66,403.62H446.43a3.17,3.17,0,0,0,0,6.34h18.23a3.17,3.17,0,0,0,0-6.34Z" transform="translate(-1.91 -30)"/><path class="cls-9" d="M464.66,417.78H417.9a3.17,3.17,0,1,0,0,6.34h46.76a3.17,3.17,0,0,0,0-6.34Z" transform="translate(-1.91 -30)"/><path class="cls-9" d="M43.14,475.66h-38a3.17,3.17,0,1,0,0,6.34H43.14a3.17,3.17,0,1,0,0-6.34Z" transform="translate(-1.91 -30)"/><path class="cls-9" d="M506.92,475.66H468.86a3.17,3.17,0,0,0,0,6.34h38.06a3.17,3.17,0,0,0,0-6.34Z" transform="translate(-1.91 -30)"/><path class="cls-9" d="M447.3,475.66H64.7a3.17,3.17,0,0,0,0,6.34H447.3a3.17,3.17,0,1,0,0-6.34Z" transform="translate(-1.91 -30)"/><path class="cls-9" d="M5.08,458.8H506.92a3.17,3.17,0,0,0,0-6.34H492.19a13.7,13.7,0,0,0,2.18-7.4V364.62a13.76,13.76,0,0,0-13.74-13.74H422.49V154.3a13.77,13.77,0,0,0-13.75-13.74H370V45.69A15.71,15.71,0,0,0,354.32,30H157.69A15.71,15.71,0,0,0,142,45.69v94.87H103.26A13.77,13.77,0,0,0,89.51,154.3V350.87H31.37a13.76,13.76,0,0,0-13.74,13.74v80.45a13.7,13.7,0,0,0,2.18,7.4H5.08a3.17,3.17,0,0,0,0,6.34Zm162.66-13.74V408h13.2v37a13.62,13.62,0,0,0,2.19,7.4H165.56a13.61,13.61,0,0,0,2.18-7.4Zm26.95,7.4a7.4,7.4,0,0,1-7.4-7.4V364.62a7.4,7.4,0,0,1,7.4-7.4H317.31a7.4,7.4,0,0,1,7.4,7.4v80.44a7.4,7.4,0,0,1-7.4,7.4Zm151.75,0H328.88a13.7,13.7,0,0,0,2.18-7.4V408h13.2v37A13.61,13.61,0,0,0,346.44,452.46ZM488,364.62v80.44a7.41,7.41,0,0,1-7.4,7.4H358a7.4,7.4,0,0,1-7.4-7.4V364.62a7.4,7.4,0,0,1,7.4-7.4H480.63A7.4,7.4,0,0,1,488,364.62ZM408.74,146.9a7.4,7.4,0,0,1,7.4,7.4V350.87H358a13.76,13.76,0,0,0-13.74,13.74v37.06h-13.2V364.62a13.76,13.76,0,0,0-13.75-13.74H259.17V248.72h95.14A15.7,15.7,0,0,0,370,233V146.9ZM148.34,77.67H363.66V233a9.35,9.35,0,0,1-9.34,9.35H157.69a9.35,9.35,0,0,1-9.34-9.35Zm206-41.33a9.37,9.37,0,0,1,9.36,9.36V71.33H148.34V45.7a9.38,9.38,0,0,1,9.35-9.36ZM95.86,154.3a7.4,7.4,0,0,1,7.4-7.4H142V233a15.69,15.69,0,0,0,15.68,15.68h95.15V350.87H194.69a13.76,13.76,0,0,0-13.75,13.74v37.06h-13.2V364.62A13.75,13.75,0,0,0,154,350.88H95.86ZM24,445.05V364.62a7.4,7.4,0,0,1,7.4-7.4H154a7.4,7.4,0,0,1,7.4,7.4v80.44a7.4,7.4,0,0,1-7.4,7.4H31.37a7.41,7.41,0,0,1-7.4-7.4Z" transform="translate(-1.91 -30)"/></svg>