<svg id="Layer_1" data-name="Layer 1" xmlns="http://www.w3.org/2000/svg" viewBox="0 0 16.12 23.97"><defs><style>.cls-1{fill:#73cddc;}.cls-2,.cls-4,.cls-5,.cls-7{fill:#fff;}.cls-2{stroke:#5e5d5b;}.cls-2,.cls-8{stroke-width:0.1px;}.cls-3,.cls-9{fill:#030d18;}.cls-4,.cls-7,.cls-9{stroke:#fff;}.cls-4{stroke-width:0.16px;}.cls-6,.cls-8{fill:#f6d2a1;}.cls-7{stroke-width:0.15px;}.cls-8{stroke:#657075;}.cls-9{stroke-width:0.16px;}</style></defs><path class="cls-1" d="M10.69,0c-3,0-5.46,2.81-5.46,6.31v5.28h0V17c0,3.5,2.43,6.31,5.46,6.31h2.62c3,0,5.46-2.81,5.46-6.31V11.74h0V6.33c0-3.5-2.43-6.31-5.46-6.31Z" transform="translate(-3.94 -0.02)"/><path class="cls-1" d="M4.53,1.7l0,0a1.24,1.24,0,0,1,1.74-.47l1.07.63a1.35,1.35,0,0,1,.49,1.79l0,0a1.24,1.24,0,0,1-1.73.47L5,3.48A1.33,1.33,0,0,1,4.53,1.7Z" transform="translate(-3.94 -0.02)"/><path class="cls-1" d="M19.83,2h0a1.33,1.33,0,0,1-.59,1.77l-1.13.57a1.3,1.3,0,0,1-1.76-.58h0A1.33,1.33,0,0,1,16.94,2l1.13-.57A1.3,1.3,0,0,1,19.83,2Z" transform="translate(-3.94 -0.02)"/><circle class="cls-2" cx="5.25" cy="3.94" r="2.36"/><circle class="cls-2" cx="10.93" cy="3.93" r="2.36"/><ellipse class="cls-3" cx="3.84" cy="3.85" rx="0.91" ry="1.03"/><path class="cls-4" d="M12.08,9,13,9.2a.81.81,0,0,1,0,.16c0,.43-.21.79-.46.79h0c-.26,0-.47-.35-.47-.79h0A1.65,1.65,0,0,1,12.08,9Z" transform="translate(-3.94 -0.02)"/><ellipse class="cls-5" cx="4.38" cy="4.21" rx="0.16" ry="0.19"/><ellipse class="cls-3" cx="9.47" cy="4.01" rx="0.91" ry="1.03"/><ellipse class="cls-5" cx="10.01" cy="4.31" rx="0.16" ry="0.19"/><ellipse class="cls-6" cx="4.98" cy="12.07" rx="1.18" ry="0.81" transform="translate(-10.47 5.89) rotate(-39.4)"/><path class="cls-7" d="M12.06,9l-.87.15c0,.05,0,.1,0,.16,0,.42.21.77.46.77h0c.26,0,.46-.35.46-.77h0a1,1,0,0,0,0-.31Z" transform="translate(-3.94 -0.02)"/><ellipse class="cls-6" cx="19.02" cy="12.15" rx="0.81" ry="1.18" transform="translate(-6.38 19.12) rotate(-50.6)"/><ellipse class="cls-6" cx="16.76" cy="22.98" rx="0.99" ry="1.46" transform="translate(-12.85 35.19) rotate(-79.37)"/><ellipse class="cls-6" cx="7.34" cy="22.79" rx="1.46" ry="0.99" transform="translate(-11.37 3.93) rotate(-20.24)"/><path class="cls-8" d="M10.84,7.7a.68.68,0,0,0-.68.69v.13a.68.68,0,0,0,.68.69h.44a1.29,1.29,0,0,1,.8-.27,1.32,1.32,0,0,1,.81.27h.38A.68.68,0,0,0,14,8.52V8.39a.68.68,0,0,0-.68-.69Z" transform="translate(-3.94 -0.02)"/><ellipse class="cls-9" cx="8.08" cy="7.47" rx="1.39" ry="0.78"/></svg>