<svg id="Layer_1" data-name="Layer 1" xmlns="http://www.w3.org/2000/svg" viewBox="0 0 24 24"><defs><style>.cls-1{fill:#26c6da;}</style></defs><path class="cls-1" d="M12,0A12,12,0,0,0,0,12H0A12,12,0,1,0,12,0Zm1.49,2.87a3.7,3.7,0,0,1,2.62.93,3.06,3.06,0,0,1,1,2.38A3.93,3.93,0,0,1,16,9a3.51,3.51,0,0,1-2.62,1.2,2.35,2.35,0,0,1-1.43-.42,1.26,1.26,0,0,1-.57-1A1.06,1.06,0,0,1,11.59,8a.65.65,0,0,1,.51-.29c.19,0,.29.11.29.33a.54.54,0,0,0,.21.45.88.88,0,0,0,.5.16c.5,0,1-.34,1.44-1a3.91,3.91,0,0,0,.7-2.21,1.76,1.76,0,0,0-.54-1.34,1.9,1.9,0,0,0-1.38-.53,3.61,3.61,0,0,0-2.47,1.13,8.51,8.51,0,0,0-1.94,3,9.4,9.4,0,0,0-.74,3.49,4,4,0,0,0,.66,2.43,2.05,2.05,0,0,0,1.75.89c1.23,0,2.4-.87,3.53-2.6l1.77-.26c.22,0,.33,0,.33.16a5.21,5.21,0,0,1-.26.81c-.17.48-.4,1.28-.69,2.39a7.67,7.67,0,0,0,2.25-1.87V14.2a8.31,8.31,0,0,1-2.44,1.68,7,7,0,0,1-1.67,3.86,3.88,3.88,0,0,1-2.9,1.38,1.86,1.86,0,0,1-1.21-.36,1.21,1.21,0,0,1-.43-1c0-1.16,1.13-2.3,3.39-3.39.24-.85.47-1.61.7-2.29a5.24,5.24,0,0,1-1.72,1.51,4.19,4.19,0,0,1-2.1.66A3.2,3.2,0,0,1,6.5,14.9a5.57,5.57,0,0,1-1-3.47A8,8,0,0,1,6.64,7.24,9.17,9.17,0,0,1,9.75,4.07a7.09,7.09,0,0,1,3.74-1.2ZM12,17.33c-1.63.81-2.45,1.61-2.45,2.4,0,.42.2.64.6.64.79,0,1.41-1,1.85-3Z"/></svg>