<svg id="Layer_1" data-name="Layer 1" xmlns="http://www.w3.org/2000/svg" viewBox="0 0 262.11 300"><defs><style>.cls-1{fill:#f4511e;}</style></defs><path class="cls-1" d="M54,0c-15.7-.39-35.1,7.82-35.1,7.82L83.08,137.92l-34,145.39c31,26.24,65.27,13.69,65.27,13.69l15.75-112.5a71.93,71.93,0,0,0,6.23,5.21A98.8,98.8,0,0,0,158,201.1a160.8,160.8,0,0,0,22.79,6.84,139.47,139.47,0,0,0,15.09,2.56A35.77,35.77,0,0,0,192.44,227a1.55,1.55,0,0,0,.85,1.42h.28A70.93,70.93,0,0,0,211,235a59.08,59.08,0,0,0,18.8.85A35.93,35.93,0,0,0,248,228.16a38.6,38.6,0,0,0,11.11-15.95l.28-.29v-.28l.86-7.69v-.29a72,72,0,0,0,8.54-5.69,37,37,0,0,0,8.83-10A25,25,0,0,0,281,174.33a35,35,0,0,0-4-13.1,57.92,57.92,0,0,0-7.4-11.11,77.91,77.91,0,0,0-19.94-16.24,100.52,100.52,0,0,0-23.07-10.83l-3.14-.85-2.56-.85c-1.71-.57-3.13-1.43-4.56-2a17.58,17.58,0,0,1-6.27-5.7c-2.85-4.27-3.13-10.82-1.71-17.65a35.1,35.1,0,0,1,1.43-5.13c.57-1.71,1.14-3.42,1.71-5.41a35.48,35.48,0,0,0,.78-5.74l38.07-33.31c-3-11-35.84-22.37-35.84-22.37l-97.68,83.07L60.48.76A32.55,32.55,0,0,0,54,0ZM194.42,95.36a50.9,50.9,0,0,0-.84,9.46,29.44,29.44,0,0,0,4.84,14.82,29.78,29.78,0,0,0,11.68,10,38.74,38.74,0,0,0,6.55,2.56l3.42.86,2.85.57A91.09,91.09,0,0,1,244,142.14a84.08,84.08,0,0,1,17.94,13.39c5.13,5.13,9.12,11.68,9.69,18.23.28,4.56-.29,8-1.71,10.82a30.39,30.39,0,0,1-6.27,8.55,36.63,36.63,0,0,1-3.7,3.13,35.27,35.27,0,0,0-.86-7.69,20.63,20.63,0,0,0-1.14-4,7.25,7.25,0,0,0-2.56-3.42c-.28,0-.57,0-.57.29A26.78,26.78,0,0,1,247.13,192,19.59,19.59,0,0,1,236,196a39.16,39.16,0,0,1-12.53-1.71c-4.28-1.14-8.54-2.57-12.82-4l-.57-.29a2.72,2.72,0,0,0-2.56.58c-2.28,2.84-4,5.4-6,8.25a72.39,72.39,0,0,0-3.7,6.56c-5.13-2-10-3.71-15.1-5.7-7.12-2.85-14.25-5.7-20.8-9.11a104.89,104.89,0,0,1-19.08-11.12,52.33,52.33,0,0,1-10.67-10l3.14-22.39Z" transform="translate(-18.94 0)"/></svg>