<svg id="Layer_1" data-name="Layer 1" xmlns="http://www.w3.org/2000/svg" viewBox="0 0 23.93 5.82"><defs><style>.cls-1{fill:#ff7043;fill-rule:evenodd;}</style></defs><path class="cls-1" d="M8.53,9.09c-2.76,0-4.2,3.48-5.8,3.48-1,0-1.12-.68-1.12-.92s.23-.7.56-.7c.59,0,.42.77.42.77a.93.93,0,0,0,.27-1.3,1.35,1.35,0,0,0-1.92-.17,2.12,2.12,0,0,0-.85,2.28,2.65,2.65,0,0,0,1.23,1.81,5.24,5.24,0,0,0,2.33.57c2.2,0,4.35-1.64,6.64-2.33a5.88,5.88,0,0,1,1.5-.22,6.53,6.53,0,0,1,1.92.23c2.3.69,4.44,2.32,6.64,2.32a5.35,5.35,0,0,0,2.33-.56,2.69,2.69,0,0,0,1.23-1.81,2.13,2.13,0,0,0-.85-2.29,1.37,1.37,0,0,0-1.92.17.93.93,0,0,0,.27,1.3s-.17-.77.42-.77c.33,0,.56.37.56.71s-.15.91-1.12.91c-1.6,0-3-3.48-5.8-3.48-2.56,0-3.07,1.18-3.46,1.72v0c-.39-.54-.9-1.72-3.46-1.72Z" transform="translate(-0.04 -9.09)"/></svg>