<svg id="Layer_1" data-name="Layer 1" xmlns="http://www.w3.org/2000/svg" viewBox="0 0 209.99 210"><defs><style>.cls-1{fill:#f68712;}.cls-2{fill:#fab20b;}.cls-3{fill:#fbc707;}.cls-4{fill:#fff200;}.cls-5{fill:#f47216;}.cls-6{fill:#f1471d;}.cls-7{fill:#f25c19;}.cls-8{fill:#f89c0e;}</style></defs><rect class="cls-1" x="50.63" y="50.63" width="108.72" height="108.72" transform="translate(-43.49 104.99) rotate(-45)"/><path class="cls-2" d="M28.13,105,14.07,52.55,0,.06,52.5,14.13,105,28.19,66.56,66.62Z" transform="translate(0)"/><path class="cls-3" d="M104.68,28.11l-52.35-14L0,.06,27.79.28,55.94.64,80.5,14.41Z" transform="translate(0)"/><path class="cls-4" d="M0,.06,14.06,52.39l14,52.35L14.35,80.56.58,56,.23,27.85Z" transform="translate(0)"/><path class="cls-5" d="M105,28.14l52.49-14.07L210,0,195.92,52.5,181.85,105,143.43,66.56Z" transform="translate(0)"/><path class="cls-6" d="M182,104.68l14-52.35L210,0l-.23,27.79-.35,28.15L195.65,80.5Z" transform="translate(0)"/><path class="cls-3" d="M210,0,157.66,14.06l-52.34,14,24.17-13.7L154.05.58,182.2.22Z" transform="translate(0)"/><path class="cls-7" d="M181.86,105l14.07,52.5L210,210,157.5,195.9,105,181.84l38.43-38.43Z" transform="translate(0)"/><path class="cls-1" d="M105.32,181.92l52.34,14L210,210l-27.79-.22-28.15-.36-24.56-13.77Z" transform="translate(0)"/><path class="cls-6" d="M210,210l-14.05-52.33L182,105.3l13.7,24.18L209.41,154l.36,28.15Z" transform="translate(0)"/><path class="cls-8" d="M105,181.87,52.5,195.93,0,210l14.06-52.5L28.14,105l38.42,38.43Z" transform="translate(0)"/><path class="cls-4" d="M28.05,105.33l-14,52.34L0,210l.23-27.79.36-28.15L14.35,129.5Z" transform="translate(0)"/><path class="cls-7" d="M0,210l52.33-14.05,52.35-14L80.5,195.64,55.94,209.41l-28.15.36Z" transform="translate(0)"/></svg>