<svg id="Layer_1" data-name="Layer 1" xmlns="http://www.w3.org/2000/svg" viewBox="0 0 24 24"><defs><style>.cls-1{fill:#ffca28;}</style></defs><path class="cls-1" d="M0,0H24V24H0V0M6.31,20.05a3.49,3.49,0,0,0,3.38,2.07,3.07,3.07,0,0,0,3.38-3.4V11H10.8v7.66c0,1.14-.47,1.44-1.2,1.44S8.51,19.57,8.15,19l-1.84,1.1m8-.24a4.34,4.34,0,0,0,4.12,2.31c2.13,0,3.73-1.11,3.73-3.15,0-1.88-1.08-2.72-3-3.54l-.56-.24c-1-.42-1.38-.7-1.38-1.36a1,1,0,0,1,1.08-1,1.55,1.55,0,0,1,1.45,1l1.75-1.16a3.36,3.36,0,0,0-3.2-1.78,3,3,0,0,0-3.31,3c0,1.84,1.08,2.7,2.71,3.4l.56.24c1,.45,1.65.73,1.65,1.5s-.6,1.11-1.53,1.11a2.44,2.44,0,0,1-2.23-1.37Z"/></svg>