<svg id="Layer_1" data-name="Layer 1" xmlns="http://www.w3.org/2000/svg" viewBox="0 0 285.81 300"><defs><style>.cls-1{fill:#0277bd;}</style></defs><path class="cls-1" d="M93.51,0V0l-8.1,0C75.77-.07,67.7,5.2,60.68,10.69c-7.66,6-14.22,13.87-16.27,24.39-1.17,6.17-.92,11.56-.92,17V94.48c0,15-5.58,26.13-13.15,33.42C26.08,132.12,17,136,6.64,139.46v19.17c9.17,2.53,18,6,22.89,10.3a39.57,39.57,0,0,1,13.95,30.58v49.57c0,16.47,3.93,29,15.36,37.63s24.75,12.87,40,13.29l10.18-.07V275.21c-7.94-2.32-12.36-5-15.54-8.07-5.72-5.18-9-13.61-9-25.3v-40c-.22-13.62-2.42-24.27-7.38-32s-14.63-14.43-29-20.24q23.83-10.92,32-28.48c3.2-7,4.42-16.35,4.42-28.16V56.26c0-12.13,2.81-20.62,7.69-25.47,2.64-2.64,7.35-4.8,13.88-6.56l10.34.07V0Z" transform="translate(-6.64)"/><path class="cls-1" d="M205.59,0V0l8.09,0c9.64-.08,17.71,5.19,24.73,10.68,7.66,6,14.22,13.87,16.27,24.39,1.18,6.17.93,11.56.93,17V94.48c0,15,5.58,26.13,13.14,33.42,4.26,4.22,13.36,8.07,23.7,11.56v19.17c-9.16,2.53-18,6-22.89,10.3a39.6,39.6,0,0,0-13.94,30.58v49.57c0,16.47-3.93,29-15.37,37.63s-24.75,12.87-40,13.29l-10.19-.07V275.21c8-2.32,12.36-5,15.54-8.07,5.72-5.18,9-13.61,9-25.3v-40c.21-13.62,2.41-24.27,7.37-32s14.63-14.44,29-20.24q-23.83-10.92-32-28.48c-3.2-7-4.41-16.35-4.41-28.16V56.26c0-12.13-2.82-20.62-7.69-25.47-2.65-2.64-7.35-4.8-13.89-6.56l-10.33.07V0Z" transform="translate(-6.64)"/></svg>