<svg id="Layer_1" data-name="Layer 1" xmlns="http://www.w3.org/2000/svg" viewBox="0 0 24 24"><defs><style>.cls-1{fill:#ef5350;}</style></defs><path class="cls-1" d="M12,0A12,12,0,1,0,24,12,12,12,0,0,0,12,0Zm0,1.94A10,10,0,0,1,16.42,21l-.2,0h-.38l-.54,0a5.07,5.07,0,0,1-.54-.09,4.94,4.94,0,0,1-.52-.13,4.29,4.29,0,0,1-.5-.19,5,5,0,0,1-1-.51,4.46,4.46,0,0,1-.43-.33,4.38,4.38,0,0,1-.39-.36,4.59,4.59,0,0,1-.36-.41,4.37,4.37,0,0,1-.31-.44,3.59,3.59,0,0,1-.27-.47,4.31,4.31,0,0,1-.22-.49,4.36,4.36,0,0,1-.17-.51,4.9,4.9,0,0,1-.18-1.06c0-.13,0-.25,0-.38a4.89,4.89,0,0,1,0-.54c0-.18,0-.36.08-.54s.08-.35.13-.52.12-.34.19-.5.15-.33.23-.49a4.43,4.43,0,0,1,.29-.46c.1-.15.21-.29.32-.43l.18-.19c0-.07.11-.13.17-.2a4.8,4.8,0,0,0,.32-.43,4.43,4.43,0,0,0,.29-.46c.08-.16.16-.32.23-.48s.13-.34.19-.51.09-.35.13-.52.06-.36.08-.54a4.75,4.75,0,0,0,0-.54c0-.12,0-.25,0-.37a5,5,0,0,0-.06-.54,5.46,5.46,0,0,0-.29-1,4.31,4.31,0,0,0-.22-.49,4.39,4.39,0,0,0-.27-.47c-.1-.15-.2-.3-.31-.44a4.48,4.48,0,0,0-.36-.4,4.51,4.51,0,0,0-.39-.37A4.46,4.46,0,0,0,11,3.87l-.46-.28L10,3.36l-.5-.19A4.56,4.56,0,0,0,9,3,4.51,4.51,0,0,0,8.47,3a4.89,4.89,0,0,0-.54,0H7.65a10.07,10.07,0,0,1,4.35-1Zm1.84,3.35A7.47,7.47,0,0,1,15.6,8.78c.21,1.76-1.94,6.19-2.8,7.47h1.76a34.42,34.42,0,0,0,2.38-5.12,35,35,0,0,1,1.81,5.12h1.6A40.44,40.44,0,0,0,15.6,5.34s-1.18,0-1.76,0ZM3.61,7.75h1.6A36.18,36.18,0,0,0,7,12.87,35.49,35.49,0,0,1,9.4,7.75h1.76c-.86,1.28-3,5.71-2.8,7.47a7.38,7.38,0,0,0,1.76,3.49c-.58,0-1.77-.05-1.77-.05A40.66,40.66,0,0,1,3.61,7.75Z"/></svg>