<svg id="Layer_1" data-name="Layer 1" xmlns="http://www.w3.org/2000/svg" viewBox="0 0 23.72 21.21"><defs><style>.cls-1{fill:#ef5350;}</style></defs><path class="cls-1" d="M2.43,1.39A2.3,2.3,0,0,0,.14,3.69h0V17.45a2.29,2.29,0,0,0,2.29,2.29h8.89l1.95,1.84a.35.35,0,0,0,.45,0l1.41-1.14a4.91,4.91,0,0,0,1.3.3l.76,1.65a.33.33,0,0,0,.4.18l2.6-.78a.35.35,0,0,0,.24-.38l-.27-1.8a4.06,4.06,0,0,0,.48-.45,4.52,4.52,0,0,0,.43-.53l1.81.18a.34.34,0,0,0,.35-.26l.62-2.64a.35.35,0,0,0-.2-.4L22,14.87a4.62,4.62,0,0,0-.38-1.27l1.05-1.48a.35.35,0,0,0-.05-.44L20.78,10V3.69a2.29,2.29,0,0,0-2.3-2.29ZM2.43,6H18.48v4.88a5.38,5.38,0,0,0-1-.23L16.67,9a.33.33,0,0,0-.41-.17l-2.59.78a.33.33,0,0,0-.24.37l.29,1.79a5.56,5.56,0,0,0-.5.46,5,5,0,0,0-.42.52L11,12.57a.32.32,0,0,0-.35.26L10,15.47a.33.33,0,0,0,.2.39l1.7.66a5.12,5.12,0,0,0,.25.93H2.43Zm14.46,7.34a2.38,2.38,0,0,1,1.78,4h0a2.37,2.37,0,1,1-1.77-4Z" transform="translate(-0.14 -1.39)"/></svg>