<svg id="Layer_1" data-name="Layer 1" xmlns="http://www.w3.org/2000/svg" viewBox="0 0 717.26 670"><defs><style>.cls-1{fill:#4db6ac;}.cls-1,.cls-2,.cls-3{fill-rule:evenodd;}.cls-2{fill:#00897b;}.cls-3{fill:#ffb74d;}</style></defs><path class="cls-1" d="M179.82,321,1.37,386.53l138,97.62,110-109L179.81,321Z" transform="translate(-1.37 -25)"/><path class="cls-2" d="M488,26.88c-14.93,2-10.88,1.15-32.31,18.3-20.48,16.4-79.54,114.15-111.1,147-28.08,29.26-39.2,13.88-68.36,38.29S202,303.82,202,303.82l72.77,53.83L390.14,199c27.24-37.46,26.95-42.39,41.79-81.69,7.26-19.23,20.2-34,31.57-52.11,14.21-22.6,34.34-39.64,24.51-38.31Z" transform="translate(-1.37 -25)"/><path class="cls-3" d="M485.75,25c-35.56-.21-70.6,156.12-131.44,276.05-62,122.3-184.55,201.13-184.55,201.13,20.66,9.38,39.45,5.59,61.7,26.61C246.67,547.18,290.71,638,317,695a498,498,0,0,0,48.91-31.5c27.33-19.79,60.43-47.66,83.47-80,30.58-42.87,54.48-69.43,74.74-85.62s36.85-22,52.84-23.36c57.14-4.9,141.71,97.59,141.71,97.59S541.56,25.34,485.74,25Z" transform="translate(-1.37 -25)"/></svg>