<svg id="Layer_1" data-name="Layer 1" xmlns="http://www.w3.org/2000/svg" viewBox="0 0 497.69 431"><defs><style>.cls-1{fill:#5075c1;}.cls-2{fill:#7db7e1;}</style></defs><path class="cls-1" d="M125.58,464.92c0-.31-2.94-5.63-6.53-11.82s-6.52-11.49-6.52-11.79,10.15-18,22.55-39.37,22.74-39.25,23-39.76c.37-.82-1.72-4.66-15.89-29.3-9-15.6-16.31-28.57-16.31-28.82,0-.54,26.09-46.4,26.88-47.27.44-.47.63-.41,1.15.43.34.54,18,31.2,39.24,68.12C259.93,441.44,273,464,273.57,464.49a1.56,1.56,0,0,1,.58.74c0,.15-12.63.23-28.06.17-24.55-.1-28.06-.19-28.15-.74-.12-.76-29.5-52.08-30.78-53.75-.8-1.05-1-1.11-1.52-.55-.74.75-30.88,52.61-31.46,54.12l-.39,1H139.68c-11.62,0-14.11-.1-14.11-.57ZM304.32,331c-.14-.24,1.27-3.06,3.13-6.28,7.39-12.74,89.91-155.46,102.92-178,7.62-13.19,14-24,14.22-23.92.39.06,27.59,46,27.59,46.56,0,.18-7.21,12.75-16,27.92-9,15.52-15.93,27.84-15.79,28.18.19.51,4.86.6,32.22.6h32l1,1.58c.56.87,3.51,5.91,6.56,11.22S498,248.72,498.3,249c.75.75.75.77-.17,1.68-.42.41-3.58,5.68-7,11.69s-6.45,11.08-6.7,11.25-21,.18-46.14,0l-45.69-.27-.86,1.23c-.47.67-8,13.58-16.74,28.69l-15.88,27.46H342.57c-9.09,0-21.35.12-27.25.27-7,.18-10.83.13-11-.14ZM161.66,162.57c-60.13-.06-109.33-.2-109.33-.3s6-10.81,13.31-23.78L79,114.9h32.35c28.92,0,32.35-.07,32.35-.65,0-.36-7.1-13-15.78-28.19S112.1,58.42,112.1,58.29s2.86-5.18,6.35-11.21,6.41-11.28,6.46-11.66c.09-.63,1.47-.7,14.48-.7,7.9,0,14.36.16,14.34.34a3.28,3.28,0,0,0,.57,1.27c.33.5,10.41,18.06,22.4,39s22.09,38.42,22.44,38.83c.59.69,2.72.73,33.52.73h32.89l13.76,23.62c7.56,13,13.65,23.79,13.52,24s-5.09.33-11,.27-60-.15-120.13-.21Z" transform="translate(-1.15 -34.5)"/><path class="cls-2" d="M7.93,238.2C1.42,249.47.79,250.69,1.29,251.08c.3.24,3.39,5.39,6.87,11.43s6.41,11.05,6.53,11.11,14.49.16,31.94.22,32,.25,32.3.42c.51.3-1.15,3.3-15.61,28.35l-16.17,28L60.91,354c7.58,12.83,13.85,23.37,13.94,23.42s24.81-42.49,54.92-94.53c12.11-20.92,22.63-39.08,32.4-55.94,24.86-43.14,32.72-57,32.78-57.73-1.17-.12-6.55-.2-13.88-.23-4.21,0-8.34,0-13.6,0l-27,.1L124,197.52c-15.21,26.34-16.48,28.44-17.37,28.65l0,0s-1.73,0-2,0c-4.57.06-21.81.06-42.9,0-24.14-.09-44.39-.14-45-.11a3.27,3.27,0,0,1-1.37-.14c-.15-.11-3.51,5.41-7.46,12.25Zm218.82-203c-.13.16,6,11.09,13.62,24.28,13,22.54,95.34,165.36,102.69,178.13a44.24,44.24,0,0,0,3.67,5.7c1-1.33,3.76-6,8.48-14.1,3.12-5.61,7.18-12.81,10.72-18.94l7.05-12.2c.73-1.5.8-1.94.69-2.26-.17-.51-7.36-13.16-16-28.09s-15.81-27.58-16-28.08a.8.8,0,0,1,0-.39l-.45-1,23.08-39.44c3.93-6.73,6.85-11.78,10.1-17.38,9.77-17,12.84-22.6,12.69-23s-2.88-5.16-6.11-10.69S374.77,37,374.31,36.05s-.78-1.45-1.17-1.55l-.16,0c-.44.12-5.81.21-11.93.2s-12,0-13,.07l-1.88.1-16,27.71c-13.68,23.69-16.09,27.69-16.64,27.6a2.75,2.75,0,0,1-.25-.32c-.11.07-.21.1-.29,0-.27-.15-7.62-12.69-16.32-27.85L281.36,35.41c-.12-.19-.47-.79-.49-.8-.51-.29-53.87.31-54.12.61Zm-19.88,302a.81.81,0,0,0,0,.52c.35,1.12,27,46.64,27.49,46.91.22.13,15.12.26,33.12.29,28.43,0,32.8.16,33.31.88.33.46,10.66,18.36,22.95,39.78s22.56,39.07,22.82,39.22,6.32.26,13.47.25,13.23.1,13.5.26.41-.15.91-.85l6.41-11.1c5.58-9.67,7.06-12.46,6.71-12.68-.61-.38-16.63-28.42-25.44-44.24-3.3-5.82-5.73-10.15-5.81-10.43-.21-.76-.07-.88,1.23-1.05,2.09-.26,61.23-.06,61.94.22.26.1.85-.6,2.77-3.73s5.37-9.09,11.73-20.12c7.71-13.34,13.92-24.3,13.81-24.36a5.63,5.63,0,0,0-1.59,0h-.05c-4.75.22-36.18.22-159.72,0-41.55-.06-74.43-.1-76.7-.08a19.08,19.08,0,0,0-2.84.19.2.2,0,0,0-.06.09Z" transform="translate(-1.15 -34.5)"/></svg>