<svg id="Layer_1" data-name="Layer 1" xmlns="http://www.w3.org/2000/svg" viewBox="0 0 21.22 23.93"><defs><style>.cls-1{fill:#8bc34a;}</style></defs><path class="cls-1" d="M12,0a1.94,1.94,0,0,0-.92.24L2.31,5.34a1.85,1.85,0,0,0-.92,1.6V17.06a1.85,1.85,0,0,0,.92,1.6L4.61,20a3.87,3.87,0,0,0,2,.56,2.45,2.45,0,0,0,2.61-2.75V7.8A.26.26,0,0,0,9,7.54H7.87a.27.27,0,0,0-.27.26v10c0,.78-.8,1.54-2.08.89L3.1,17.31A.33.33,0,0,1,3,17.06V6.94A.27.27,0,0,1,3.1,6.7l8.77-5.06a.24.24,0,0,1,.26,0L20.9,6.7a.27.27,0,0,1,.13.24V17.06a.33.33,0,0,1-.13.25l-8.77,5.05a.26.26,0,0,1-.27,0L9.64,21a.28.28,0,0,0-.25,0,5.08,5.08,0,0,1-1.32.6c-.14.05-.36.13.09.38l2.92,1.73a1.82,1.82,0,0,0,1.84,0l8.77-5.06a1.85,1.85,0,0,0,.92-1.6V6.94a1.85,1.85,0,0,0-.92-1.6L12.92.27A1.91,1.91,0,0,0,12,0m2.36,7.25c-2.5,0-4,1-4,2.82s1.49,2.45,3.89,2.69c2.87.28,3.09.71,3.09,1.27,0,1-.79,1.39-2.63,1.39-2.33,0-2.83-.57-3-1.73a.27.27,0,0,0-.26-.21H10.31a.24.24,0,0,0-.24.26c0,1.46.8,3.23,4.64,3.23,2.77,0,4.36-1.1,4.36-3s-1.27-2.39-4-2.76-3-.54-3-1.18.23-1.23,2.25-1.23c1.77,0,2.46.39,2.73,1.6a.26.26,0,0,0,.25.2h1.14a.23.23,0,0,0,.18-.08.2.2,0,0,0,.06-.19C18.55,8.25,17.16,7.28,14.36,7.28Z" transform="translate(-1.39 -0.03)"/></svg>