<svg id="Layer_1" data-name="Layer 1" xmlns="http://www.w3.org/2000/svg" viewBox="0 0 15.6 24"><defs><style>.cls-1{fill:#9575cd;}</style></defs><path class="cls-1" d="M12.6,14.4c-1.2,0-3.6,1.2-3.6,2.4,0,2.4,3.6,2.4,3.6,2.4V18a1.2,1.2,0,0,1,0-2.4V14.4m0,6s-4.8-.6-4.8-3c0-3.6,3.6-4.5,4.8-4.5V11.4c-1.2,0-6,1.8-6,5.4,0,4.8,6,4.8,6,4.8V20.4M10.28,6l1.43.63a13.09,13.09,0,0,1,1.9-4.87,25.06,25.06,0,0,0-1.07,3.06A13.47,13.47,0,0,1,16.93,0a19.34,19.34,0,0,0-3.17,4.24A18.51,18.51,0,0,1,18.29.9a13.63,13.63,0,0,0-5,6.25l.66.1a2.93,2.93,0,0,0,.3,1.65c.91,2.27,5.59,2.46,5.59,7.9S15,24,12.4,24s-8.2-1.16-8.2-7.2,5.94-6.08,7-8.5C11.34,7.85,10.28,6,10.28,6Z" transform="translate(-4.2)"/></svg>