<svg id="Layer_1" data-name="Layer 1" xmlns="http://www.w3.org/2000/svg" viewBox="0 0 31.56 22.47"><defs><style>.cls-1{fill:#0288d1;}</style></defs><path class="cls-1" d="M10.86,22A2.4,2.4,0,0,0,9.28,20c-.32-.16-.8-.48-1.11-.64a10.94,10.94,0,0,1-1.27-.47c-.32-.16-.63,0-1,.31a.7.7,0,0,0,.16.8,2.87,2.87,0,0,0,.63.79A8.92,8.92,0,0,0,7.85,22c.32.47.63.79.48,1.42a5.37,5.37,0,0,1-1.43,3,.5.5,0,0,1-.32.16A2.38,2.38,0,0,1,5.16,26a.74.74,0,0,1,.16-1.27.34.34,0,0,0,.31-.32A1,1,0,0,0,6,23.27c-.16-.15-.16-.31-.32-.47a24.09,24.09,0,0,0-2.22-1.9A7.59,7.59,0,0,1,.24,15.19,12.64,12.64,0,0,1,2,8.06,5.16,5.16,0,0,1,4.05,6,8.82,8.82,0,0,1,6,5.37a12.89,12.89,0,0,1,5.55-.48,3.94,3.94,0,0,1,3.32,2.7,7.17,7.17,0,0,1,.32,3.17,5.62,5.62,0,0,1-4,4.75c-.95.32-1.43.16-1.9-.63a15.19,15.19,0,0,1-1.11-1.75V13c0-.15-.16-.15-.16-.31a7.71,7.71,0,0,0,.79,2.69,1.41,1.41,0,0,0,1.27.79A5.28,5.28,0,0,0,15,14.08a7.93,7.93,0,0,0,1.27-6,3.77,3.77,0,0,0-.32-1.27c0-.31,0-.47.32-.63.16,0,.32,0,.32-.16a17.27,17.27,0,0,1,4.91-.32,10.33,10.33,0,0,1,5.23,1.75,11.31,11.31,0,0,1,4.91,6.81,3.47,3.47,0,0,1,.16,1.27c0,.32-.16.32-.48.16s-.47-.48-.63-.64-.32-.47-.48-.63-.31-.16-.31,0-.16.32-.16.48A9.53,9.53,0,0,1,27.5,19a1.15,1.15,0,0,0-.32.63,8.05,8.05,0,0,0,0,1.9c.16,1.27.32,2.69.48,4,.16.79-.16,1.11-.79,1.43a4.67,4.67,0,0,1-1.59.32H22.75c0-1,0-1.91-.8-2.38.16-.64.32-1.27.48-2.06a1.84,1.84,0,0,0-.32-1.59,1,1,0,0,0-1.26-.31,4.37,4.37,0,0,1-4,.31c-.63-.15-1.11-.15-1.42.48a4.18,4.18,0,0,0-.48,1.9,13.9,13.9,0,0,0,.32,2.54c0,.47,0,.63-.48.79a7.2,7.2,0,0,1-3.17.16H11.5c0-.95,0-1.9-1.11-2.38A3.13,3.13,0,0,0,10.86,22Zm-6.5-3.65a.83.83,0,0,0,.32-.63,1.39,1.39,0,0,0-.79-1.43.46.46,0,0,0-.63.16c-.48.48-.8.95-1.27,1.43,0,.15-.16.15-.16.31-.16.32,0,.64.32.64a1,1,0,0,1,.63.16,2,2,0,0,0,1.58-.64Zm0-5.23a.68.68,0,0,0-.63-.63.63.63,0,0,0-.63.79.71.71,0,0,0,.79.63A1.29,1.29,0,0,0,4.36,13.13Z" transform="translate(-0.22 -4.76)"/></svg>