<svg id="Layer_1" data-name="Layer 1" xmlns="http://www.w3.org/2000/svg" viewBox="0 0 23.93 18.18"><defs><style>.cls-1{fill:#03a9f4;}</style></defs><path class="cls-1" d="M23.17,2.91a.76.76,0,0,1,.76,1L20.34,20.08a1.32,1.32,0,0,1-1.23,1H.83a.76.76,0,0,1-.76-1L3.66,3.92a1.32,1.32,0,0,1,1.23-1H23.17M16.35,16.55H11.81a1,1,0,0,0-1,.95,1,1,0,0,0,1,1h4.54a1,1,0,0,0,1-1,1,1,0,0,0-1-.95m-11.42.31A1,1,0,0,0,6.1,18.51c8.35-5.87,8.41-5.94,8.47-6a1,1,0,0,0,.32-.68,1,1,0,0,0-.19-.63l-5.59-6A1,1,0,0,0,7.64,6.59l4.71,5.05Z" transform="translate(-0.03 -2.91)"/></svg>