<svg id="Layer_1" data-name="Layer 1" xmlns="http://www.w3.org/2000/svg" viewBox="0 0 20.4 24"><defs><style>.cls-1{fill:#00bfa5;fill-rule:evenodd;}</style></defs><g id="prisma"><path class="cls-1" d="M20.51,19,9.45,22.22a.46.46,0,0,1-.59-.52l4-18.43a.39.39,0,0,1,.72-.08l7.32,15.13a.52.52,0,0,1-.34.72Zm1.9-.75L13.94.76h0a1.39,1.39,0,0,0-2.4-.13L2.35,15.13a1.32,1.32,0,0,0,0,1.45l4.49,6.78A1.44,1.44,0,0,0,8.07,24a1.4,1.4,0,0,0,.41-.06l13-3.75a1.43,1.43,0,0,0,.9-.76,1.33,1.33,0,0,0,0-1.15Z" transform="translate(-2.14)"/></g></svg>