<svg id="Layer_1" data-name="Layer 1" xmlns="http://www.w3.org/2000/svg" viewBox="0 0 24 24"><defs><style>.cls-1{fill:#ef5350;}</style></defs><path class="cls-1" d="M12,16.36a6.64,6.64,0,0,0,2.4,2.19L12,21l-2.4-2.4A6.56,6.56,0,0,0,12,16.36m5.45-5.23a2.18,2.18,0,0,0-2.18,2.18h0a2.19,2.19,0,0,0,2.18,2.18h0a2.19,2.19,0,0,0,2.19-2.18h0a2.19,2.19,0,0,0-2.19-2.18m-10.9,0a2.18,2.18,0,0,0-2.19,2.18h0a2.19,2.19,0,0,0,2.19,2.18h0a2.19,2.19,0,0,0,2.18-2.18h0a2.18,2.18,0,0,0-2.18-2.18M17.45,8.4a4.37,4.37,0,0,1,4.37,4.36h0a4.37,4.37,0,0,1-4.37,4.37h0a4.37,4.37,0,0,1-4.36-4.37h0A4.36,4.36,0,0,1,17.45,8.4h0m-10.9,0a4.36,4.36,0,0,1,4.36,4.36h0a4.37,4.37,0,0,1-4.36,4.37h0a4.37,4.37,0,0,1-4.37-4.37h0A4.37,4.37,0,0,1,6.55,8.4h0M1.35,0C3.27,4,1.89,7.05.6,10a6.53,6.53,0,0,0,6,9.27h0a5.36,5.36,0,0,0,.68-.06l3.23,3.23L12,24l1.54-1.52,3.23-3.23a5.36,5.36,0,0,0,.68.06A6.55,6.55,0,0,0,24,12.76h0A6.57,6.57,0,0,0,23.4,10c-1.29-3-2.67-6-.75-10A18.66,18.66,0,0,1,12,4,18.66,18.66,0,0,1,1.35,0Z"/></svg>