<svg id="Layer_1" data-name="Layer 1" xmlns="http://www.w3.org/2000/svg" viewBox="0 0 24 24"><defs><style>.cls-1{fill:#3c78aa;}.cls-2{fill:#fdd835;}</style></defs><path class="cls-1" d="M9.43,0A3.44,3.44,0,0,0,6,3.43v2h5.15c.46,0,.85.68.85,1.15H3.43A3.43,3.43,0,0,0,0,10v4.54A3.42,3.42,0,0,0,3.43,18H4.85V14.79a3.42,3.42,0,0,1,3.42-3.44h6.3A3.41,3.41,0,0,0,18,7.93V3.43A3.43,3.43,0,0,0,14.57,0ZM8.57,1.93c.48,0,.86.15.86.85s-.38,1.07-.86,1.07-.85-.36-.85-1.07S8.1,1.93,8.57,1.93Z" transform="translate(0)"/><path class="cls-2" d="M19.15,6V9.22a3.42,3.42,0,0,1-3.42,3.43H9.43A3.42,3.42,0,0,0,6,16.07v4.5A3.43,3.43,0,0,0,9.43,24h5.14A3.44,3.44,0,0,0,18,20.57h0v-2H12.85c-.47,0-.85-.68-.85-1.15h8.57A3.44,3.44,0,0,0,24,14h0V9.43A3.44,3.44,0,0,0,20.57,6ZM7.58,11.42Zm7.85,8.73c.47,0,.85.36.85,1.07a.85.85,0,0,1-.85.85c-.48,0-.86-.15-.86-.85S15,20.15,15.43,20.15Z" transform="translate(0)"/></svg>