<svg id="Layer_1" data-name="Layer 1" xmlns="http://www.w3.org/2000/svg" viewBox="0 0 23.93 18.45"><defs><style>.cls-1{fill:#1976d2;}</style></defs><path class="cls-1" d="M12,2.78c-6.58,0-12,3.59-12,8C0,14.73,4.3,18,9.89,18.68v2.54H14V18.69a14.78,14.78,0,0,0,2.86-.58l1.65,3.11H23.1l-2.77-4.67C22.56,15.09,24,13,24,10.8c0-4.43-5.38-8-12-8m1.83,3.13c5,0,8.73,1.68,8.73,5.49a4.69,4.69,0,0,1-2.89,4.37,1.26,1.26,0,0,1-.27-.18c-.43-.19-1.14-.41-1.14-.41a3.8,3.8,0,0,0,3.56-3.81c0-3.56-3.73-3.62-3.73-3.62H9.89v8.57c-3.05-.89-5.15-2.76-5.15-4.92,0-3,4.07-5.49,9.09-5.49M14,10.67h2.48a1.06,1.06,0,0,1,1.13,1.13A1.12,1.12,0,0,1,16.49,13H14V10.67M14,16h1.1a.65.65,0,0,1,.52.24,3,3,0,0,1,.47.55,17.42,17.42,0,0,1-2.09.12Z" transform="translate(-0.04 -2.78)"/></svg>