<svg id="Layer_1" data-name="Layer 1" xmlns="http://www.w3.org/2000/svg" viewBox="0 0 24 24"><defs><style>.cls-1{fill:#42a5f5;}</style></defs><path class="cls-1" d="M12,15.6a3.58,3.58,0,0,0,2.53-6.13,3.58,3.58,0,1,0-5.06,5.06A3.5,3.5,0,0,0,12,15.6M12,0a11.56,11.56,0,0,1,8.46,3.54A11.56,11.56,0,0,1,24,12v1.74a4.36,4.36,0,0,1-1.2,3.06,4.13,4.13,0,0,1-3,1.2,4.23,4.23,0,0,1-3.53-1.8A5.81,5.81,0,0,1,12,18,6,6,0,0,1,7.75,7.75,6,6,0,0,1,18,12v1.74a1.84,1.84,0,0,0,.55,1.3,1.71,1.71,0,0,0,2.53,0,1.81,1.81,0,0,0,.52-1.3V12a9.21,9.21,0,0,0-2.82-6.78A9.21,9.21,0,0,0,12,2.4,9.21,9.21,0,0,0,5.22,5.22,9.21,9.21,0,0,0,2.4,12a9.21,9.21,0,0,0,2.82,6.78A9.21,9.21,0,0,0,12,21.6h6V24H12a11.56,11.56,0,0,1-8.46-3.54A11.56,11.56,0,0,1,0,12,11.56,11.56,0,0,1,3.54,3.54,11.56,11.56,0,0,1,12,0Z" transform="translate(0)"/></svg>