<svg id="Layer_1" data-name="Layer 1" xmlns="http://www.w3.org/2000/svg" viewBox="0 0 23.67 21.17"><defs><style>.cls-1{fill:#00bcd4;}</style></defs><path class="cls-1" d="M12,9.92A2.06,2.06,0,1,1,9.94,12,2.07,2.07,0,0,1,12,9.92M6.9,20.81c.7.41,2.22-.22,4-1.88A23.52,23.52,0,0,1,9.2,16.84a24.66,24.66,0,0,1-2.64-.39c-.56,2.35-.35,4,.34,4.36m.79-6.32-.32-.56a6.14,6.14,0,0,0-.32.94c.29.07.62.12,1,.18l-.33-.56m7.19-.84.9-1.65-.9-1.65c-.33-.58-.68-1.1-1-1.62-.59,0-1.22,0-1.88,0s-1.29,0-1.88,0c-.32.52-.67,1-1,1.62L8.22,12l.9,1.65c.33.58.68,1.1,1,1.62.59,0,1.22,0,1.88,0s1.29,0,1.88,0c.32-.52.67-1,1-1.62M12,6.25c-.21.25-.43.5-.65.8h1.3c-.22-.3-.44-.55-.65-.8m0,11.5c.21-.25.43-.5.65-.8h-1.3c.22.3.44.55.65.8M17.09,3.19c-.69-.41-2.21.22-4,1.88A23.52,23.52,0,0,1,14.8,7.16a24.66,24.66,0,0,1,2.64.39c.56-2.35.35-4-.35-4.36m-.78,6.32.32.56A6.14,6.14,0,0,0,17,9.13c-.29-.07-.62-.12-1-.18l.33.56m1.6-7.76c1.62.93,1.8,3.36,1.11,6.2,2.8.82,4.81,2.19,4.81,4.05s-2,3.23-4.81,4.05c.69,2.84.51,5.27-1.11,6.2s-3.8-.13-5.91-2.15c-2.11,2-4.3,3.07-5.92,2.15S4.29,18.89,5,16.05C2.18,15.23.17,13.86.17,12S2.18,8.77,5,8c-.69-2.84-.51-5.27,1.1-6.2S9.89,1.88,12,3.9c2.11-2,4.3-3.07,5.91-2.15M17.59,12a22.53,22.53,0,0,1,1,2.49c2.31-.7,3.61-1.69,3.61-2.49s-1.3-1.79-3.61-2.49a22.53,22.53,0,0,1-1,2.49M6.41,12a22.53,22.53,0,0,1-1-2.49c-2.31.7-3.61,1.69-3.61,2.49s1.3,1.79,3.61,2.49a22.53,22.53,0,0,1,1-2.49m9.9,2.49-.33.56c.35-.06.68-.11,1-.18a6.14,6.14,0,0,0-.32-.94l-.32.56m-3.18,4.44c1.75,1.66,3.27,2.29,4,1.88s.91-2,.35-4.36a24.66,24.66,0,0,1-2.64.39,23.52,23.52,0,0,1-1.67,2.09M7.69,9.51,8,9c-.35.06-.68.11-1,.18a6.14,6.14,0,0,0,.32.94l.32-.56m3.18-4.44C9.12,3.41,7.6,2.78,6.9,3.19s-.9,2-.34,4.36A24.66,24.66,0,0,1,9.2,7.16,23.52,23.52,0,0,1,10.87,5.07Z" transform="translate(-0.17 -1.41)"/></svg>