<svg id="Layer_1" data-name="Layer 1" xmlns="http://www.w3.org/2000/svg" viewBox="0 0 144 144"><defs><style>.cls-1{fill:#ff7043;}</style></defs><path class="cls-1" d="M67.5,17a4.28,4.28,0,1,1,4.28,4.28A4.27,4.27,0,0,1,67.5,17M16.44,55.72A4.28,4.28,0,1,1,20.71,60a4.28,4.28,0,0,1-4.27-4.28m102.11.2a4.28,4.28,0,1,1,4.28,4.28,4.28,4.28,0,0,1-4.28-4.28h0M28.83,61.78a3.9,3.9,0,0,0,2-5.15l-1.9-4.3h7.47V86H21.31a52.52,52.52,0,0,1-1.7-20.11Zm31.24.83V52.69H77.85c.92,0,6.49,1.06,6.49,5.22,0,3.46-4.27,4.7-7.79,4.7ZM35.79,116a4.28,4.28,0,1,1,4.27,4.28A4.28,4.28,0,0,1,35.79,116m63.41.2a4.28,4.28,0,1,1,4.28,4.28,4.28,4.28,0,0,1-4.28-4.28m1.33-9.71a3.91,3.91,0,0,0-4.64,3l-2.15,10a52.68,52.68,0,0,1-43.94-.21l-2.15-10a3.89,3.89,0,0,0-4.63-3l-8.85,1.9a53.55,53.55,0,0,1-4.58-5.4H72.66c.49,0,.81-.09.81-.53V87.06c0-.45-.32-.54-.81-.54H60.06V76.87H73.69c1.24,0,6.64.35,8.37,7.26.54,2.13,1.73,9,2.54,11.25.81,2.48,4.11,7.44,7.62,7.44h22.24a52.45,52.45,0,0,1-4.88,5.65ZM124.44,66.3a52.75,52.75,0,0,1,.11,9.15h-5.41c-.54,0-.75.36-.75.89v2.48c0,5.84-3.3,7.12-6.19,7.44s-5.8-1.15-6.17-2.84c-1.62-9.12-4.33-11.07-8.6-14.44,5.3-3.36,10.81-8.32,10.81-15,0-7.17-4.91-11.69-8.27-13.9a23.45,23.45,0,0,0-11.31-3.72H32.75A52.63,52.63,0,0,1,62.23,19.75l6.59,6.91a3.89,3.89,0,0,0,5.51.13l7.38-7.06a52.68,52.68,0,0,1,36.07,25.7l-5,11.4a3.92,3.92,0,0,0,2,5.16Zm12.59.19-.17-1.76,5.2-4.86a2.16,2.16,0,0,0-.69-3.47l-6.65-2.49-.52-1.71,4.15-5.76A2.16,2.16,0,0,0,137,43.17L130,42l-.84-1.58,3-6.46a2.16,2.16,0,0,0-2-3l-7.12.25-1.12-1.36L123.52,23A2.17,2.17,0,0,0,121,20.49l-6.93,1.63L112.72,21l.25-7.12a2.16,2.16,0,0,0-3-2l-6.46,2.94L102,14l-1.14-7a2.17,2.17,0,0,0-3.27-1.36L91.81,9.8l-1.72-.52L87.61,2.63a2.17,2.17,0,0,0-3.48-.69l-4.85,5.2L77.52,7l-3.75-6a2.16,2.16,0,0,0-3.54,0L66.49,7l-1.77.17-4.85-5.2a2.16,2.16,0,0,0-3.47.69L53.91,9.28,52.2,9.8,46.44,5.65A2.18,2.18,0,0,0,43.16,7L42,14l-1.57.84L34,11.92a2.15,2.15,0,0,0-2.94,2L31.29,21l-1.37,1.12L23,20.49A2.17,2.17,0,0,0,20.49,23l1.63,6.93L21,31.29,13.88,31a2.17,2.17,0,0,0-2,3l2.94,6.46L14,42,7,43.17a2.16,2.16,0,0,0-1.36,3.27L9.8,52.2l-.52,1.71L2.63,56.4a2.16,2.16,0,0,0-.69,3.47l5.2,4.86L7,66.49l-6,3.74a2.16,2.16,0,0,0,0,3.54L7,77.52l.17,1.76-5.2,4.85a2.17,2.17,0,0,0,.69,3.48l6.65,2.48.52,1.72L5.65,97.57A2.17,2.17,0,0,0,7,100.84L14,102l.84,1.58L11.92,110a2.17,2.17,0,0,0,2,3l7.11-.25,1.13,1.36L20.49,121a2.15,2.15,0,0,0,2.5,2.5l6.93-1.63L31.29,123,31,130.12a2.16,2.16,0,0,0,2.94,2l6.47-3L42,130l1.14,7a2.17,2.17,0,0,0,3.28,1.36l5.76-4.15,1.71.52,2.49,6.65a2.16,2.16,0,0,0,3.47.69l4.85-5.2,1.77.17,3.74,6.05a2.16,2.16,0,0,0,3.54,0L77.52,137l1.76-.17,4.85,5.2a2.17,2.17,0,0,0,3.48-.69l2.48-6.65,1.72-.52,5.76,4.15a2.16,2.16,0,0,0,3.27-1.36l1.14-7,1.58-.84,6.46,3a2.16,2.16,0,0,0,2.94-2l-.24-7.12,1.36-1.12,6.93,1.63a2.15,2.15,0,0,0,2.5-2.5l-1.63-6.93,1.12-1.36,7.12.25a2.17,2.17,0,0,0,2-3l-2.94-6.46L130,102l7-1.14a2.16,2.16,0,0,0,1.36-3.27l-4.15-5.76.52-1.72,6.65-2.48a2.17,2.17,0,0,0,.69-3.48l-5.2-4.85.17-1.76,6.05-3.75a2.16,2.16,0,0,0,0-3.54Z" transform="translate(0 0)"/></svg>