<svg id="Layer_1" data-name="Layer 1" xmlns="http://www.w3.org/2000/svg" viewBox="0 0 418.43 494.73"><defs><style>.cls-1{fill:#ec407a;stroke:#ec407a;stroke-miterlimit:5.24;stroke-width:16.29px;}</style></defs><path class="cls-1" d="M448.59,69.31C434.27,13.1,341.07-5.37,252.87,26c-52.5,18.66-109.31,47.92-150.18,86.14-48.59,45.45-56.34,85-53.13,101.52,11.26,58.3,91.16,96.43,124,124.7v.17c-9.69,4.76-80.56,40.63-97.15,77.31-17.5,38.7,2.79,66.46,16.22,70.2,41.62,11.58,84.32-9.24,107.29-43.49,22.15-33,20.3-75.7,10.68-96.92,13.27-3.5,28.76-5.07,48.43-2.78,55.52,6.49,66.41,41.15,64.33,55.66S309.63,421,305.73,423.36s-5.08,3.25-4.76,5c.48,2.61,2.28,2.51,5.6,1.94,4.57-.77,29.14-11.8,30.2-38.57,1.34-34-31.24-72-88.93-71-23.75.42-38.69,2.67-49.49,6.69-.8-.91-1.6-1.82-2.45-2.72-35.66-38-101.59-65-98.8-116.11,1-18.6,7.48-67.57,126.68-127C321.43,33,399.61,46.37,413.12,76c19.3,42.39-41.78,121.19-143.19,132.56-38.63,4.32-59-10.65-64-16.22-5.33-5.87-6.12-6.14-8.12-5-3.24,1.8-1.19,7,0,10.07,3,7.89,15.45,21.86,36.63,28.81,18.64,6.11,64,9.47,118.86-11.74,61.43-23.8,109.42-89.92,95.32-145.17ZM187.2,355.74c4.6,17,4.09,32.92-.67,47.29-.52,1.6-1.1,3.17-1.74,4.75s-1.31,3.09-2,4.62a88.73,88.73,0,0,1-14.62,21.3C149.73,453.76,124.05,461.35,113,455c-11.89-6.9-5.93-35.18,15.37-57.71,22.94-24.24,55.94-39.83,55.94-39.83l0-.09,2.9-1.59Z" transform="translate(-40.79 -2.63)"/></svg>