<svg id="Layer_1" data-name="Layer 1" xmlns="http://www.w3.org/2000/svg" viewBox="0 0 418.06 494.29"><defs><style>.cls-1{fill:#ec407a;stroke:#ec407a;stroke-miterlimit:5.24;stroke-width:16.29px;}</style></defs><path class="cls-1" d="M448.41,69.48C434.1,13.32,341-5.13,252.86,26.17c-52.45,18.64-109.2,47.88-150,86.06-48.55,45.4-56.29,84.91-53.09,101.42C61,271.9,140.82,310,173.64,338.23v.17c-9.69,4.76-80.5,40.6-97.07,77.25C59.09,454.31,79.36,482,92.78,485.78,134.36,497.35,177,476.55,200,442.33c22.13-33,20.28-75.62,10.66-96.83,13.27-3.49,28.74-5.06,48.39-2.77,55.47,6.48,66.35,41.11,64.27,55.6s-13.71,22.47-17.61,24.87-5.08,3.25-4.75,5c.47,2.6,2.27,2.5,5.58,1.94,4.57-.77,29.12-11.79,30.18-38.54,1.34-34-31.21-72-88.84-71-23.74.42-38.66,2.67-49.45,6.68-.8-.9-1.6-1.81-2.45-2.7-35.63-38-101.5-64.91-98.71-116,1-18.57,7.48-67.5,126.57-126.84C321.36,33.17,399.47,46.56,413,76.2c19.28,42.36-41.74,121.08-143,132.43-38.6,4.33-58.93-10.63-64-16.2-5.33-5.87-6.11-6.13-8.11-5-3.23,1.8-1.19,7,0,10.06,3,7.88,15.43,21.84,36.6,28.78,18.62,6.11,63.93,9.47,118.75-11.73,61.37-23.77,109.31-89.83,95.23-145ZM187.26,355.64c4.6,17,4.09,32.89-.67,47.25-.52,1.6-1.1,3.17-1.74,4.74s-1.3,3.09-2,4.62a88.58,88.58,0,0,1-14.61,21.28c-18.37,20-44,27.63-55,21.24-11.88-6.9-5.93-35.15,15.36-57.65,22.91-24.23,55.88-39.8,55.88-39.8l0-.09,2.9-1.59Z" transform="translate(-40.97 -2.86)"/></svg>