<svg id="Layer_1" data-name="Layer 1" xmlns="http://www.w3.org/2000/svg" viewBox="0 0 16.8 24"><defs><style>.cls-1{fill:#ffce00;}</style></defs><path class="cls-1" d="M8.4,22.8A1.16,1.16,0,0,0,9.6,24h4.8a1.16,1.16,0,0,0,1.2-1.2V21.6H8.4ZM12,0A8.45,8.45,0,0,0,3.6,8.4a8.26,8.26,0,0,0,3.6,6.9V18a1.16,1.16,0,0,0,1.2,1.2h7.2A1.16,1.16,0,0,0,16.8,18V15.3a8.26,8.26,0,0,0,3.6-6.9A8.45,8.45,0,0,0,12,0Zm3.4,13.3-1,.7v2.8H9.6V14l-1-.7A5.93,5.93,0,0,1,6,8.4a6,6,0,1,1,12,0,5.93,5.93,0,0,1-2.6,4.9Z" transform="translate(-3.6)"/></svg>