<svg id="Layer_1" data-name="Layer 1" xmlns="http://www.w3.org/2000/svg" viewBox="0 0 146.62 200"><defs><style>.cls-1{fill:#c0ca33;}</style></defs><path class="cls-1" d="M133.39,168.58c18-21.48,20.07-43.66,6.16-84.86-8.8-26-23.41-46.12-12.67-62.32,11.44-17.25,35.74-.53,15.49,22.54l4,2.81c24.29,2.82,36.27-30.46,18.13-40-47.88-25-89.78,23.06-71.3,78.69,7.92,23.59,19,48.6,10,68.49-7.75,17.08-22.72,27.11-32.75,27.46-21,1.06-7-47,17.08-59,2.11-1.06,5.1-2.47,2.29-6-29.76-3.34-47.19,10.39-57.22,29.58-29.23,55.81,55.46,76.4,100.7,22.53Z" transform="translate(-26.69 0)"/></svg>