<svg id="Layer_1" data-name="Layer 1" xmlns="http://www.w3.org/2000/svg" viewBox="0 0 24 24"><defs><style>.cls-1{fill:#ffb300;}</style></defs><path class="cls-1" d="M3.76,10.45H8.24L5.06,7.27A2.2,2.2,0,1,1,7.27,5.06l3.18,3.18V3.76a2.22,2.22,0,0,1,0-3.11,2.17,2.17,0,0,1,3.1,0,2.22,2.22,0,0,1,0,3.11V8.24l3.19-3.18a2.2,2.2,0,1,1,2.2,2.21l-3.18,3.18h4.48a2.22,2.22,0,0,1,3.11,0,2.17,2.17,0,0,1,0,3.1,2.22,2.22,0,0,1-3.11,0H15.76l3.18,3.19a2.2,2.2,0,1,1-2.2,2.2l-3.19-3.18v4.48a2.22,2.22,0,0,1,0,3.11,2.17,2.17,0,0,1-3.1,0,2.22,2.22,0,0,1,0-3.11V15.76L7.27,18.94a2.2,2.2,0,1,1-2.21-2.2l3.18-3.19H3.76a2.22,2.22,0,0,1-3.11,0,2.17,2.17,0,0,1,0-3.1A2.22,2.22,0,0,1,3.76,10.45Z" transform="translate(0 0)"/></svg>