<svg id="Layer_1" data-name="Layer 1" xmlns="http://www.w3.org/2000/svg" viewBox="0 0 23.87 21.38"><defs><style>.cls-1{fill:#fe5e2f;}</style></defs><path class="cls-1" d="M18.07,21.21C15.25,22.84,11.4,23,7.5,21.33A16.41,16.41,0,0,1,.06,15a13,13,0,0,0,2.75,1.67c4,1.88,8,1.75,10.86,0a57.88,57.88,0,0,1-10-10.39,12,12,0,0,1-1.34-1.8c9.88,7.22,9.45,9.06,2.88-1.21a67.62,67.62,0,0,0,11.25,9.24l.43.26a7.24,7.24,0,0,0,.31-.93c.94-3.4-.13-7.3-2.48-10.51,5.43,3.28,8.65,9.44,7.3,14.6a1.58,1.58,0,0,0-.06.47c2.68,3.38,2,6.9,1.61,6.23C22.14,19.76,19.43,20.64,18.07,21.21Z" transform="translate(-0.06 -1.31)"/></svg>