<svg id="Capa_1" data-name="Capa 1" xmlns="http://www.w3.org/2000/svg" viewBox="0 0 286.72 389.12"><defs><style>.cls-1{fill:#fff;}.cls-2{fill:#602f75;}.cls-3{fill:#ffe600;}.cls-4{fill:#00e7ff;}.cls-5{fill:#ea3457;}</style></defs><polyline class="cls-1" points="279.89 287.94 279.89 382.29 6.83 382.29 6.83 6.83 233.54 6.83 279.89 47.79 279.89 245.76"/><path class="cls-2" d="M331.09,389.12H58a6.83,6.83,0,0,1-6.83-6.83V6.83A6.83,6.83,0,0,1,58,0H284.74a6.81,6.81,0,0,1,4.52,1.71l46.35,41a6.83,6.83,0,0,1,2.31,5.12v198a6.83,6.83,0,1,1-13.65,0V50.87L282.16,13.65H64.85V375.47H324.27V288a6.83,6.83,0,1,1,13.65,0v94.34A6.83,6.83,0,0,1,331.09,389.12Z" transform="translate(-51.2)"/><rect class="cls-3" x="13.65" y="320.85" width="259.41" height="54.61"/><polygon class="cls-4" points="279.89 47.79 232.11 47.79 232.11 6.83 279.89 47.79"/><path class="cls-2" d="M331.09,54.61H283.31a6.82,6.82,0,0,1-6.83-6.82v-41a6.83,6.83,0,0,1,11.27-5.18l47.79,41a6.82,6.82,0,0,1-4.45,12ZM290.13,41h22.51L290.13,21.67Z" transform="translate(-51.2)"/><path class="cls-5" d="M221.87,279.89H167.25a6.83,6.83,0,0,1,0-13.65h54.62a6.83,6.83,0,0,1,0,13.65Z" transform="translate(-51.2)"/><path class="cls-5" d="M262.83,129.71H126.29a6.83,6.83,0,0,1,0-13.66H262.83a6.83,6.83,0,0,1,0,13.66Z" transform="translate(-51.2)"/><path class="cls-5" d="M194.56,279.89a6.82,6.82,0,0,1-6.83-6.82V129.71a6.83,6.83,0,1,1,13.66,0V273.07A6.82,6.82,0,0,1,194.56,279.89Z" transform="translate(-51.2)"/><path class="cls-5" d="M126.29,150.19a6.83,6.83,0,0,1-6.82-6.83V122.88a6.83,6.83,0,1,1,13.65,0v20.48A6.83,6.83,0,0,1,126.29,150.19Z" transform="translate(-51.2)"/><path class="cls-5" d="M262.83,150.19a6.83,6.83,0,0,1-6.83-6.83V122.88a6.83,6.83,0,1,1,13.65,0v20.48A6.83,6.83,0,0,1,262.83,150.19Z" transform="translate(-51.2)"/></svg>