<svg id="Layer_1" data-name="Layer 1" xmlns="http://www.w3.org/2000/svg" viewBox="0 0 45.06 50"><defs><style>.cls-1{fill:#9bb92f;}</style></defs><path class="cls-1" d="M5.1,49.76a8.11,8.11,0,0,1-.21-2.36,3.55,3.55,0,0,1,.35.6,1.44,1.44,0,0,0,.37.55,7.76,7.76,0,0,0-.11-2.77,11.83,11.83,0,0,0-2.67-6.44,1.73,1.73,0,0,1-.36-.47,8.7,8.7,0,0,1,2.09,1.54,12,12,0,0,1,1.11,1.33c.36.54.52.7.57.61S6,31.15,5.82,28c-.09-1.42.07-1.16.69,1.17A105.22,105.22,0,0,1,9.15,42.21c.1.72.2,1.33.22,1.35s.11,0,.18,0a6.25,6.25,0,0,1,2.88-.83c.82,0,1.07.07.4.2a3.39,3.39,0,0,0-2.65,2.49,7.29,7.29,0,0,0,0,3.88c.17.41,0,.48-1.2.63a3.67,3.67,0,0,1-1.36,0,2.84,2.84,0,0,0-1.35,0,1.32,1.32,0,0,1-.53.07c-.43,0-.48,0-.61-.24ZM7.33,46.1c.17-.23.08-.46-.23-.59s-.3-.1-.49,0a.39.39,0,0,0-.09.63A.74.74,0,0,0,7.33,46.1Zm1.41.1A.73.73,0,0,0,9,46c.28-.37-.39-.7-.84-.41s.09.88.6.64Zm2.59,3.5a2.4,2.4,0,0,1,.38-.88c.24-.44.46-.75.49-.7a3.58,3.58,0,0,1-.38,1.55c-.17.12-.4.14-.49,0Zm-7.95-.47c-.33-.39-.25-.49.15-.2.2.14.37.29.37.35S3.58,49.48,3.38,49.23Zm9.77-.16c0-.06.12-.2.26-.32s.35-.13.16.23S13.15,49.25,13.15,49.07Zm9.12-.94a1.25,1.25,0,0,1-.6-.16,15.81,15.81,0,0,1,0-3.44s.15.17.22.38c.14.43.25.47.35.14a36.52,36.52,0,0,0,0-4.86c-.51-4-2.11-6.92-4.91-8.91a12.47,12.47,0,0,0-4.57-1.94c-.86-.17-.59-.25.68-.21A10.82,10.82,0,0,1,20,31.4a12.4,12.4,0,0,1,2.63,2.82c.51.78.72,1,.72.66,0-.07.07-1,.16-2,.76-9.33,2.7-17.06,5.63-22.44C31.23,6.53,34.9,2.69,38,1.08A8.73,8.73,0,0,1,42.59,0a4.5,4.5,0,0,1,2,.35,7.89,7.89,0,0,1,1.54.75c.69.46,1.48,1.13,1.39,1.19a3.48,3.48,0,0,1-.79-.46c-3-2-5.72-1.71-8,.84a32.93,32.93,0,0,0-4.11,6.16,58,58,0,0,0-6,20.81,28.15,28.15,0,0,0-.22,4.18A11.66,11.66,0,0,0,29,32.57c1.8-4.21,4-7.27,6.54-8.94a5.69,5.69,0,0,1,1.94-.94,2.62,2.62,0,0,1-.49.52,16.82,16.82,0,0,0-4.78,7.42,31,31,0,0,0-1.55,10.52A38.73,38.73,0,0,0,31,46.91c.15.57.1.62-.66.62s-2.6.16-3.86.3a7.64,7.64,0,0,1-1.82,0c-.65-.06-1.27-.13-1.37-.15s-.21,0-.23.34-.11.23-.82.15Zm2.83-7.6a.51.51,0,0,0,.42-.58c0-.71-1.47-.8-1.72-.1-.08.24.15.58.48.7a.91.91,0,0,0,.82,0Zm2.68-.06c.31-.25.36-.41.2-.69-.46-.78-2-.34-1.62.46.14.3.34.4.84.4A.87.87,0,0,0,27.78,40.47ZM31.18,48c0-.06.1-.31.29-.55a11.66,11.66,0,0,1,1.45-1.75s.07,0,0,.1l-.47,1.09A5.52,5.52,0,0,1,31.9,48c-.19.14-.65.14-.72,0ZM34,47.35c0-.14,1-.77,1-.67a.85.85,0,0,1-.19.43c-.19.29-.27.34-.52.34S34,47.42,34,47.35Zm-14.74-.14a2.08,2.08,0,0,1-.52-.82s.28.12.58.35.51.46.48.5a.51.51,0,0,1-.54,0Z" transform="translate(-2.47)"/></svg>