<svg id="Layer_1" data-name="Layer 1" xmlns="http://www.w3.org/2000/svg" viewBox="0 0 500 500"><defs><style>.cls-1{fill:#0288d1;fill-rule:evenodd;}</style></defs><path class="cls-1" d="M0,0V500H500V0ZM379.93,242.86h0c4.79,0,10.24.26,14.34.71,16.69,1.8,29.69,9,40.74,22.57,5.51,6.75,7.39,9.71,7,11-.26.82-4,3.53-16.05,11.5-11.8,7.83-15.6,10.18-16.48,10.18s-2.76-1.92-5.45-5.6c-5.18-7.1-10.46-10.34-18.63-11.42-8.79-1.16-16.67,1.61-20.53,7.22-3.3,4.79-3.8,12.51-1.18,18.11,3,6.49,8.54,10.08,29.62,19.33,24.31,10.65,36.63,17.95,45.6,27,9.66,9.75,14.55,21,16.06,36.94a68.16,68.16,0,0,1-2.39,24.44c-5.44,18.33-20.14,31.76-41.69,38.08a81.56,81.56,0,0,1-17,3.19,149.84,149.84,0,0,1-27.55-.78c-18.24-2.65-38.83-13.27-49.1-25.3-5-5.91-11.48-15.63-11.48-17.34,0-.83.41-1.3,2-2.33,4.81-3.05,32.35-18.8,32.88-18.8.33,0,1.77,1.7,3.2,3.77,3.25,4.69,11.24,12.76,15.3,15.45a41.2,41.2,0,0,0,12.6,5.23c2.88.72,4.41.85,10.7.85s7.75-.11,10.63-.89c7.61-2,13.55-6.28,16.07-11.46,1.1-2.23,1.12-2.51,1.12-7.94v-5.62L409,388.23c-3.28-6.5-10.34-11-32.65-20.63-10.26-4.44-22.81-10.7-27.71-13.82-11.19-7.11-18.94-15.23-24-25.18s-5.82-13.58-5.83-28.45c0-11.65,0-11.51,2.38-18.94a55.49,55.49,0,0,1,11.61-19.53c9.86-10.49,24.28-17.23,39.71-18.57,2-.19,4.62-.26,7.5-.25Zm-132.8,2.3h0c29.72,0,46.76.11,47,.29.52.31.58,2.9.58,19.41v19l-29.66.11-29.66.11v84.21c0,46.31-.09,84.48-.22,84.82-.21.56-2.49.61-21.79.61H191.87l-.22-.87c-.15-.48-.25-38.65-.26-84.82V284.12L161.73,284l-29.66-.11V265.08c0-14.92.1-18.92.5-19.32s15.55-.53,80.76-.59c12.58,0,23.89,0,33.8,0Z"/></svg>