<svg id="Layer_1" data-name="Layer 1" xmlns="http://www.w3.org/2000/svg" viewBox="0 0 58.04 64"><defs><style>.cls-1{fill:#9575cd;}</style></defs><path class="cls-1" d="M25,64,23.65,5.71a19.39,19.39,0,0,0-9.37,7,20.28,20.28,0,0,0-3.34,11.91,17.46,17.46,0,0,0,.17,2.67A15.27,15.27,0,0,0,11.52,29a8.44,8.44,0,0,0,.38.91,1.17,1.17,0,0,1,.21.59A16.47,16.47,0,0,1,8.19,30a7.5,7.5,0,0,1-2.87-1.42,6.16,6.16,0,0,1-1.76-2.54A11.6,11.6,0,0,1,3,22.17a13.74,13.74,0,0,1,1.21-5.59,21.79,21.79,0,0,1,3.37-5.2,30.86,30.86,0,0,1,5.05-4.55,37.71,37.71,0,0,1,6.2-3.58A35.12,35.12,0,0,1,25.73.88,30.32,30.32,0,0,1,32.94,0c.64,0,1.22,0,1.75,0s1.11.07,1.66.13l.75,52.49L55.06.41h6L37.31,64Z" transform="translate(-2.98)"/></svg>