<svg id="Layer_1" data-name="Layer 1" xmlns="http://www.w3.org/2000/svg" viewBox="0 0 299.99 300"><defs><style>.cls-1{fill:#0288d1;}</style></defs><path class="cls-1" d="M150,53.71A96.29,96.29,0,0,0,53.71,150h0A96.29,96.29,0,0,0,150,246.29h0a96.29,96.29,0,0,0,0-192.58ZM150,81a69,69,0,1,1-69,69A69,69,0,0,1,150,81Z"/><path class="cls-1" d="M35.7,196.92,0,232.62l35.7,35.7v-22H150V219H35.7Z"/><path class="cls-1" d="M67.36,0,31.66,35.7h22V150H81V35.7h22Z"/><path class="cls-1" d="M264.29,31.67v22H150V81H264.29v22L300,67.37Z"/><path class="cls-1" d="M218.93,150V264.3h-22l35.7,35.7,35.7-35.7h-22V150Z"/></svg>