<svg id="Layer_1" data-name="Layer 1" xmlns="http://www.w3.org/2000/svg" viewBox="0 0 24 24"><defs><style>.cls-1{fill:#ff7043;}</style></defs><path class="cls-1" d="M18.67,18.67H5.33V5.33H18.67M24,10.67V8H21.33V5.33a2.66,2.66,0,0,0-2.66-2.66H16V0H13.33V2.67H10.67V0H8V2.67H5.33A2.65,2.65,0,0,0,2.67,5.33V8H0v2.67H2.67v2.66H0V16H2.67v2.67a2.66,2.66,0,0,0,2.66,2.66H8V24h2.67V21.33h2.66V24H16V21.33h2.67a2.66,2.66,0,0,0,2.66-2.66V16H24V13.33H21.33V10.67m-8,2.66H10.67V10.67h2.66M16,8H8v8h8Z" transform="translate(0 0)"/></svg>